<svg width="112" height="112" viewBox="0 0 112 112" fill="none" xmlns="http://www.w3.org/2000/svg">
<g clip-path="url(#clip0_192_564)">
<path d="M98.5766 13.5547L102.012 14.5821C101.143 16.4971 100.048 17.492 98.8197 18.607C97.1024 20.1664 95.156 21.9337 93.9208 26.0643C92.6855 30.1948 93.3418 32.7408 93.9208 34.9867C94.4454 37.0206 94.8982 38.7773 93.9593 41.9168C93.0204 45.0564 91.6776 46.2756 90.1226 47.6876C88.4052 49.2469 86.4591 51.0142 85.2238 55.1447C83.9885 59.2752 84.6448 61.8212 85.2238 64.0671C85.7484 66.1013 86.2013 67.8577 85.2623 70.9975C84.3234 74.1373 82.9804 75.3568 81.4254 76.7687C79.7068 78.3282 77.7616 80.0957 76.5252 84.2263C75.2888 88.3568 75.9463 90.903 76.5252 93.1494C77.0496 95.1836 77.5025 96.9402 76.5635 100.08C75.6246 103.22 74.2814 104.44 72.7263 105.852C71.2744 107.17 69.6587 108.639 68.4474 111.556L65.012 110.529C65.881 108.613 66.9767 107.619 68.2045 106.503C69.9219 104.944 71.8682 103.176 73.1046 99.0454C74.3411 94.9144 73.6836 92.3686 73.1046 90.1225C72.5803 88.0883 72.1274 86.3317 73.0663 83.1917C74.0052 80.0516 75.3483 78.8324 76.9033 77.4202C78.6211 75.8605 80.5675 74.0934 81.8027 69.9617C83.038 65.83 82.3815 63.2852 81.8027 61.0393C81.2784 59.0054 80.8255 57.2487 81.7644 54.1092C82.7034 50.9696 84.0461 49.7501 85.6012 48.3384C87.3183 46.7789 89.2647 45.0116 90.5013 40.8813C91.738 36.751 91.0801 34.2048 90.5013 31.9586C89.9767 29.9249 89.5239 28.1683 90.4628 25.0287C91.4017 21.8892 92.7447 20.6695 94.2998 19.2575C95.7496 17.9412 97.3653 16.473 98.5766 13.5547ZM88.0468 10.4056L94.9923 12.4837C94.1235 14.3984 93.0278 15.3933 91.8 16.5083C90.0814 18.0677 88.1362 19.835 86.8998 23.9658C85.6634 28.0966 86.3211 30.6421 86.8998 32.8883C87.4242 34.9222 87.8771 36.6786 86.9382 39.8181C85.9992 42.9577 84.6592 44.1762 83.1033 45.5882C81.3861 47.1475 79.4398 48.915 78.2045 53.0455C76.9693 57.176 77.6255 59.7218 78.2045 61.968C78.7289 64.0019 79.182 65.7583 78.2431 68.8981C77.3041 72.0379 75.9611 73.2574 74.4061 74.6696C72.6887 76.2288 70.7423 77.9963 69.5071 82.1269C68.2718 86.2574 68.9281 88.8038 69.5071 91.05C70.0317 93.0842 70.4846 94.8408 69.5456 97.9808C68.9815 99.8666 68.2711 101.058 67.4572 102.016C67.6931 100.877 67.8076 99.7156 67.799 98.5521C67.799 94.1861 66.4233 91.9065 65.2096 89.8951C64.1067 88.0674 63.1543 86.4892 63.1543 83.1575C63.1543 79.8259 64.1065 78.2478 65.2096 76.4204C65.6197 75.7404 66.0475 75.027 66.4356 74.2158C68.1378 72.6696 70.0526 70.8948 71.2732 66.8135C72.5087 62.683 71.8522 60.1373 71.2732 57.8913C70.7488 55.8572 70.2958 54.1008 71.2347 50.961C72.1736 47.8212 73.5166 46.6022 75.0714 45.1902C76.7888 43.631 78.7352 41.8637 79.9704 37.7331C81.2057 33.6026 80.5491 31.0568 79.9704 28.8107C79.446 26.7768 78.9932 25.0204 79.9321 21.8806C80.871 18.7408 82.2138 17.5215 83.7688 16.1095C85.2201 14.7911 86.8355 13.3239 88.0468 10.4056ZM68.1165 43.2733C69.7886 41.6739 71.6861 39.8613 72.9504 35.6328C74.1857 31.5023 73.5292 28.9563 72.9504 26.7101C72.4258 24.6762 71.973 22.9198 72.9119 19.78C73.8508 16.6402 75.1938 15.421 76.7489 14.009C78.2006 12.6906 79.8162 11.2235 81.0276 8.30529L84.463 9.3327C83.594 11.2477 82.4983 12.2426 81.2705 13.3576C79.5533 14.9168 77.607 16.6841 76.3717 20.8148C75.1365 24.9456 75.7928 27.4914 76.3717 29.7373C76.8961 31.7712 77.3492 33.5278 76.4103 36.6674C75.4713 39.807 74.1283 41.0262 72.5735 42.438C70.8564 43.9974 68.9098 45.7647 67.6734 49.8953C66.437 54.0258 67.0946 56.5718 67.6734 58.8177C68.1978 60.8516 68.6506 62.6082 67.7117 65.7478C67.7056 65.7685 67.6991 65.7868 67.6929 65.807C67.3538 62.6719 66.2256 60.7922 65.208 59.1057C64.7716 58.4152 64.3794 57.6979 64.0333 56.958C63.9811 56.8045 63.9277 56.6507 63.8708 56.4912C63.2957 54.872 62.6439 53.0369 64.1715 48.9835C65.3176 45.9487 66.6771 44.6481 68.1165 43.2733ZM60.2732 8.04797H63.9683C63.6833 10.1845 62.903 11.4771 62.028 12.927C60.8143 14.9384 59.4386 17.2182 59.4386 21.5838C59.4386 25.9493 60.8143 28.2289 62.028 30.2403C63.1309 32.0678 64.0833 33.646 64.0833 36.9772C64.0833 40.3084 63.1311 41.8864 62.028 43.7136C60.8143 45.725 59.4386 48.0046 59.4386 52.3699C59.4386 55.0128 59.9439 56.8888 60.6111 58.406L60.6234 58.4345C61.0349 59.3282 61.5041 60.1939 62.028 61.0265C63.1309 62.8539 64.0833 64.4322 64.0833 67.7636C64.0833 71.095 63.1311 72.673 62.028 74.5007C60.8143 76.5121 59.4386 78.792 59.4386 83.1575C59.4386 87.5231 60.8143 89.8034 62.028 91.8148C63.1309 93.6424 64.0833 95.2207 64.0833 98.5521C64.0833 101.884 63.1311 103.462 62.028 105.29C60.9994 106.995 59.8543 108.892 59.5291 112.089H55.8401C56.1255 109.955 56.9035 108.659 57.7781 107.21C58.9917 105.198 60.3675 102.918 60.3675 98.5521C60.3675 94.1861 58.9917 91.9065 57.7781 89.8951C56.6752 88.0674 55.7228 86.4892 55.7228 83.1575C55.7228 79.8259 56.675 78.2478 57.7781 76.4204C58.9917 74.409 60.3675 72.1292 60.3675 67.7636C60.3675 63.3981 58.9917 61.1182 57.7781 59.1068C56.675 57.2794 55.7228 55.7011 55.7228 52.3699C55.7228 49.0388 56.675 47.4607 57.7781 45.6335C58.9917 43.6221 60.3675 41.3425 60.3675 36.9772C60.3675 32.6119 58.9917 30.332 57.7781 28.3204C56.675 26.4932 55.7228 24.9149 55.7228 21.5838C55.7228 18.2526 56.675 16.6743 57.7781 14.8469C58.8062 13.143 59.9472 11.2414 60.2732 8.04797ZM49.126 8.04797H56.5342C56.2488 10.1822 55.4708 11.4778 54.5962 12.927C53.3828 14.9384 52.0071 17.2182 52.0071 21.5838C52.0071 25.9493 53.3828 28.2289 54.5965 30.2403C55.6994 32.0678 56.6517 33.646 56.6517 36.9772C56.6517 40.3084 55.6996 41.8864 54.5965 43.7136C53.3828 45.725 52.0071 48.0046 52.0071 52.3699C52.0071 56.7353 53.3828 59.0151 54.5965 61.0265C55.6994 62.8539 56.6517 64.4322 56.6517 67.7636C56.6517 71.095 55.6996 72.673 54.5965 74.5007C53.3828 76.5121 52.0071 78.792 52.0071 83.1575C52.0071 87.5231 53.3828 89.8034 54.5965 91.8148C55.6994 93.6424 56.6517 95.2207 56.6517 98.5521C56.6517 101.884 55.6996 103.462 54.5965 105.29C53.5684 106.994 52.4274 108.895 52.1013 112.089H44.6931C44.9785 109.955 45.7565 108.659 46.6311 107.21C47.8445 105.198 49.2202 102.918 49.2202 98.5521C49.2202 94.1861 47.8445 91.9065 46.6308 89.8951C45.5279 88.0674 44.5755 86.4892 44.5755 83.1575C44.5755 79.8259 45.5277 78.2478 46.6308 76.4204C47.8445 74.409 49.2202 72.1292 49.2202 67.7636C49.2202 63.3981 47.8445 61.1182 46.6308 59.1068C45.5277 57.2794 44.5755 55.7011 44.5755 52.3699C44.5755 49.0388 45.5277 47.4607 46.6308 45.6335C47.8445 43.6221 49.2202 41.3425 49.2202 36.9772C49.2202 32.6119 47.8445 30.332 46.6308 28.3204C45.5277 26.4932 44.5755 24.9149 44.5755 21.5838C44.5755 18.2526 45.5277 16.6743 46.6308 14.8469C47.6589 13.143 48.7999 11.2414 49.126 8.04797ZM39.1993 107.21C40.413 105.198 41.7887 102.918 41.7887 98.5521C41.7887 94.1861 40.413 91.9065 39.1993 89.8951C38.0964 88.0674 37.144 86.4892 37.144 83.1575C37.144 79.8259 38.0962 78.2478 39.1993 76.4204C40.413 74.409 41.7887 72.1292 41.7887 67.7636C41.7887 63.3981 40.413 61.1182 39.1993 59.1068C38.0962 57.2794 37.144 55.7011 37.144 52.3699C37.144 49.0388 38.0962 47.4607 39.1993 45.6335C40.413 43.6221 41.7887 41.3425 41.7887 36.9772C41.7887 32.6119 40.413 30.332 39.1993 28.3204C38.0962 26.4932 37.144 24.9149 37.144 21.5838C37.144 18.2526 38.0962 16.6743 39.1993 14.8469C40.2279 13.1423 41.373 11.2447 41.6982 8.04797H45.3884C45.103 10.1822 44.325 11.4778 43.4504 12.927C42.2356 14.9384 40.8598 17.2182 40.8598 21.5838C40.8598 25.9493 42.2356 28.2289 43.4492 30.2403C44.5521 32.0678 45.5045 33.646 45.5045 36.9772C45.5045 40.3084 44.5523 41.8864 43.4492 43.7136C42.2356 45.725 40.8598 48.0046 40.8598 52.3699C40.8598 56.7353 42.2356 59.0151 43.4492 61.0265C44.5521 62.8539 45.5045 64.4322 45.5045 67.7636C45.5045 71.095 44.5523 72.673 43.4492 74.5007C42.2356 76.5121 40.8598 78.792 40.8598 83.1575C40.8598 87.5231 42.2356 89.8034 43.4492 91.8148C44.5521 93.6424 45.5045 95.2207 45.5045 98.5521C45.5045 101.884 44.5523 103.462 43.4492 105.29C42.4211 106.994 41.2801 108.895 40.9541 112.089H37.2602C37.544 109.953 38.3243 108.659 39.1993 107.21Z" fill="black"/>
</g>
<defs>
<clipPath id="clip0_192_564">
<rect width="112" height="112" fill="white"/>
</clipPath>
</defs>
</svg>
