<svg width="110" height="110" viewBox="0 0 110 110" fill="none" xmlns="http://www.w3.org/2000/svg">
<path d="M92.8109 58.4374H92.4672C91.0922 53.6249 87.3109 49.4999 82.1547 48.4687C80.7797 42.2812 75.2797 37.8124 68.7484 37.8124C67.3734 37.8124 65.9984 38.1562 64.6234 38.4999C62.2172 35.7499 58.7797 34.3749 54.9984 34.3749C51.2172 34.3749 47.7797 35.7499 45.3734 38.4999C43.9984 38.1562 42.6234 37.8124 41.2484 37.8124C34.7172 37.8124 29.2172 42.2812 27.8422 48.4687C23.0297 49.4999 18.9047 53.6249 17.5297 58.4374H17.1859C15.1234 58.4374 13.7484 59.8124 13.7484 61.8749V65.3124C13.7484 81.4687 23.3734 96.2499 37.8109 102.781C38.1547 103.125 38.8422 103.125 39.1859 103.125H70.4672C70.8109 103.125 71.4984 103.125 71.8422 102.781C86.6234 96.2499 95.9047 81.4687 95.9047 65.3124V61.8749C96.2484 59.8124 94.8734 58.4374 92.8109 58.4374ZM30.9359 54.9999C32.9984 54.9999 34.3734 53.6249 34.3734 51.5624C34.3734 47.7812 37.4672 44.6874 41.2484 44.6874C42.2797 44.6874 43.6547 45.0312 44.6859 45.7187C46.4047 46.7499 48.4672 46.0624 49.1547 44.6874C50.5297 42.6249 52.5922 41.5937 54.9984 41.5937C57.4047 41.5937 59.4672 42.6249 60.8422 44.6874C61.8734 46.4062 63.9359 46.7499 65.3109 45.7187C66.3422 45.0312 67.3734 44.6874 68.7484 44.6874C72.5297 44.6874 75.6234 47.7812 75.6234 51.5624C75.6234 53.6249 76.9984 54.9999 79.0609 54.9999C81.4672 54.9999 83.8734 56.3749 84.9047 58.4374H25.0922C26.1234 56.3749 28.5297 54.9999 30.9359 54.9999Z" fill="black"/>
<path d="M30.9359 34.375C37.1234 34.375 42.6234 31.9687 45.7172 27.8437L85.9359 30.5937C88.6859 30.9375 91.4359 29.9062 93.4984 27.8437C95.2172 26.125 96.2484 23.375 96.2484 20.625C96.2484 17.875 95.2172 15.125 93.1547 13.4062C91.0922 11.6875 88.6859 10.6562 85.5922 10.6562L45.7172 13.4062C42.6234 9.2812 37.1234 6.87495 30.9359 6.87495C21.3109 6.87495 13.7484 13.0625 13.7484 20.625C13.7484 28.1875 21.3109 34.375 30.9359 34.375Z" fill="black"/>
</svg>