<svg width="100" height="100" viewBox="0 0 100 100" fill="none" xmlns="http://www.w3.org/2000/svg">
<g clip-path="url(#clip0_192_573)">
<path d="M98.8135 34.5728C97.4844 34.2405 96.1553 34.5728 95.1584 35.5696L84.5255 48.8607C78.8768 42.2152 64.9211 27.5949 47.9749 27.5949C47.3103 27.5949 46.978 27.5949 46.3135 27.5949C50.9654 35.5696 53.2913 44.5411 53.2913 54.1772C53.2913 63.481 50.9654 72.7848 46.3135 80.7595C46.978 80.7595 47.3103 80.7595 47.9749 80.7595C64.9211 80.7595 78.8768 66.4715 84.5255 59.4936L95.1584 72.7848C95.823 73.4493 96.8198 74.1139 97.8166 74.1139C98.1489 74.1139 98.4812 74.1139 98.8135 73.7816C100.143 73.4493 101.139 72.1202 101.139 70.7911V37.5633C101.139 36.2341 100.143 34.905 98.8135 34.5728Z" fill="black"/>
<path d="M39.3346 28.9242C22.0562 33.9084 9.42958 51.5191 8.76502 52.1837C8.10046 53.1805 8.10046 54.8419 8.76502 56.171C9.42958 57.1679 22.0562 74.7786 39.3346 79.4305C44.3188 71.7881 46.6448 63.1489 46.6448 54.1774C46.6448 45.2058 43.9865 36.2343 39.3346 28.9242ZM34.6827 54.1774C34.6827 56.171 33.3536 57.5001 31.36 57.5001C29.3663 57.5001 28.0372 56.171 28.0372 54.1774V47.5318C28.0372 45.5381 29.3663 44.209 31.36 44.209C33.3536 44.209 34.6827 45.5381 34.6827 47.5318V54.1774Z" fill="black"/>
</g>
<defs>
<clipPath id="clip0_192_573">
<rect width="100" height="100" fill="white"/>
</clipPath>
</defs>
</svg>
