<svg width="109" height="108" viewBox="0 0 109 108" fill="none" xmlns="http://www.w3.org/2000/svg">
<path d="M54.5355 73.7646C49.5154 73.7646 45.1646 72.4259 41.1484 70.0831L44.4952 80.4581V97.192H64.5759V80.4581L67.9226 70.0831C63.9065 72.4259 59.5557 73.7646 54.5355 73.7646Z" stroke="black" stroke-width="6.69355" stroke-miterlimit="10" stroke-linecap="round" stroke-linejoin="round"/>
<path d="M76.6241 75.7726C78.6322 76.7766 80.6402 77.1113 82.983 77.1113C91.3499 77.1113 98.0435 70.4177 98.0435 62.0508C98.0435 55.6919 94.0273 50.3371 88.6725 47.9943C92.354 45.6516 94.6967 41.6355 94.6967 36.95C94.6967 29.5871 88.6725 23.5629 81.3096 23.5629C79.6362 23.5629 77.6281 23.8976 76.2894 24.5669C72.608 16.2 64.2411 10.1758 54.5354 10.1758C44.8298 10.1758 36.4628 16.2 32.7814 24.5669C31.4427 23.8976 29.4346 23.5629 27.7612 23.5629C20.3983 23.5629 14.3741 29.5871 14.3741 36.95C14.3741 41.6355 16.7169 45.6516 20.3983 47.9943C15.0435 50.3371 11.0273 55.6919 11.0273 62.0508C11.0273 70.4177 17.7209 77.1113 26.0878 77.1113C28.4306 77.1113 30.4386 76.4419 32.4467 75.7726C35.4588 80.1234 39.4749 83.4701 44.4951 85.4782" stroke="black" stroke-width="6.69355" stroke-miterlimit="10" stroke-linecap="round" stroke-linejoin="round"/>
<path d="M36.7983 67.071C41.4838 71.0871 47.8427 73.7645 54.5362 73.7645C61.2298 73.7645 67.5887 71.0871 72.2741 67.071" stroke="black" stroke-width="6.69355" stroke-miterlimit="10" stroke-linecap="round" stroke-linejoin="round"/>
</svg>
