<svg width="60" height="60" viewBox="0 0 60 60" fill="none" xmlns="http://www.w3.org/2000/svg">
<path d="M42 15.1875C42.5625 15 43.3125 15 44.0625 15C49.6875 15 54.375 19.6875 54.375 25.3125C54.375 30.9375 49.6875 35.625 44.0625 35.625L45 52.5H15L15.9375 35.625C10.3125 35.625 5.625 30.9375 5.625 25.3125C5.625 19.6875 10.3125 15 15.9375 15C16.6875 15 17.4375 15 18 15.1875" stroke="black" stroke-width="3.75" stroke-miterlimit="10" stroke-linecap="round" stroke-linejoin="round"/>
<path d="M43.125 20.625C43.125 13.3125 37.3125 7.5 30 7.5C22.6875 7.5 16.875 13.3125 16.875 20.625" stroke="black" stroke-width="3.75" stroke-miterlimit="10" stroke-linecap="round" stroke-linejoin="round"/>
<path d="M30 39.375V45" stroke="black" stroke-width="3.75" stroke-miterlimit="10" stroke-linecap="round" stroke-linejoin="round"/>
<path d="M23.4375 39.375L22.5 44.4375" stroke="black" stroke-width="3.75" stroke-miterlimit="10" stroke-linecap="round" stroke-linejoin="round"/>
<path d="M36.5625 39.375L37.5 44.4375" stroke="black" stroke-width="3.75" stroke-miterlimit="10" stroke-linecap="round" stroke-linejoin="round"/>
</svg>
