<svg width="227" height="227" viewBox="0 0 227 227" fill="none" xmlns="http://www.w3.org/2000/svg">
<path d="M158.9 57.4594C161.028 56.75 163.866 56.75 166.703 56.75C187.984 56.75 205.719 74.4844 205.719 95.7656C205.719 117.047 187.984 134.781 166.703 134.781L170.25 198.625H56.75L60.2969 134.781C39.0156 134.781 21.2812 117.047 21.2812 95.7656C21.2812 74.4844 39.0156 56.75 60.2969 56.75C63.1344 56.75 65.9719 56.75 68.1 57.4594" stroke="black" stroke-width="14.1875" stroke-miterlimit="10" stroke-linecap="round" stroke-linejoin="round"/>
<path d="M163.156 78.0312C163.156 50.3656 141.166 28.375 113.5 28.375C85.8344 28.375 63.8438 50.3656 63.8438 78.0312" stroke="black" stroke-width="14.1875" stroke-miterlimit="10" stroke-linecap="round" stroke-linejoin="round"/>
<path d="M113.5 148.969V170.25" stroke="black" stroke-width="14.1875" stroke-miterlimit="10" stroke-linecap="round" stroke-linejoin="round"/>
<path d="M88.6719 148.969L85.125 168.122" stroke="black" stroke-width="14.1875" stroke-miterlimit="10" stroke-linecap="round" stroke-linejoin="round"/>
<path d="M138.328 148.969L141.875 168.122" stroke="black" stroke-width="14.1875" stroke-miterlimit="10" stroke-linecap="round" stroke-linejoin="round"/>
</svg>
