<svg width="50" height="50" viewBox="0 0 50 50" fill="none" xmlns="http://www.w3.org/2000/svg">
<path d="M35 12.6563C35.4687 12.5 36.0937 12.5 36.7188 12.5C41.4062 12.5 45.3125 16.4062 45.3125 21.0938C45.3125 25.7812 41.4062 29.6875 36.7188 29.6875L37.5 43.75H12.5L13.2812 29.6875C8.59375 29.6875 4.6875 25.7812 4.6875 21.0938C4.6875 16.4062 8.59375 12.5 13.2812 12.5C13.9063 12.5 14.5313 12.5 15 12.6563" stroke="black" stroke-width="3.125" stroke-miterlimit="10" stroke-linecap="round" stroke-linejoin="round"/>
<path d="M35.9375 17.1875C35.9375 11.0937 31.0938 6.25 25 6.25C18.9062 6.25 14.0625 11.0937 14.0625 17.1875" stroke="black" stroke-width="3.125" stroke-miterlimit="10" stroke-linecap="round" stroke-linejoin="round"/>
<path d="M25 32.8125V37.5" stroke="black" stroke-width="3.125" stroke-miterlimit="10" stroke-linecap="round" stroke-linejoin="round"/>
<path d="M19.5312 32.8125L18.75 37.0313" stroke="black" stroke-width="3.125" stroke-miterlimit="10" stroke-linecap="round" stroke-linejoin="round"/>
<path d="M30.4688 32.8125L31.25 37.0313" stroke="black" stroke-width="3.125" stroke-miterlimit="10" stroke-linecap="round" stroke-linejoin="round"/>
</svg>
