<svg width="519" height="211" viewBox="0 0 519 211" fill="none" xmlns="http://www.w3.org/2000/svg">
<path d="M183.506 210.89V192.644H185.238L185.298 193.958C185.477 193.54 185.766 193.181 186.164 192.883C186.562 192.584 187.219 192.435 188.135 192.435C189.071 192.435 189.787 192.594 190.285 192.912C190.783 193.231 191.131 193.669 191.33 194.226C191.529 194.784 191.629 195.431 191.629 196.168V203.454C191.629 204.271 191.539 204.997 191.36 205.634C191.181 206.271 190.842 206.769 190.345 207.127C189.847 207.466 189.11 207.635 188.135 207.635C187.378 207.635 186.771 207.516 186.313 207.277C185.875 207.038 185.547 206.739 185.328 206.381V210.89H183.506ZM187.567 206.5C188.125 206.5 188.553 206.421 188.852 206.261C189.15 206.102 189.369 205.893 189.509 205.634C189.648 205.356 189.728 205.057 189.747 204.738C189.767 204.4 189.777 204.042 189.777 203.663V196.466C189.777 196.088 189.767 195.739 189.747 195.421C189.728 195.082 189.648 194.774 189.509 194.495C189.369 194.216 189.15 193.997 188.852 193.838C188.553 193.679 188.125 193.599 187.567 193.599C187.01 193.599 186.582 193.699 186.283 193.898C185.985 194.097 185.766 194.366 185.626 194.704C185.487 195.023 185.407 195.371 185.387 195.749C185.367 196.128 185.358 196.486 185.358 196.825V203.872C185.358 204.35 185.397 204.798 185.477 205.216C185.577 205.614 185.776 205.933 186.074 206.172C186.393 206.391 186.891 206.5 187.567 206.5ZM194.413 207.426V188.493H196.235V207.426H194.413ZM202.088 207.635C201.63 207.635 201.162 207.565 200.684 207.426C200.226 207.307 199.828 207.018 199.49 206.56C199.171 206.082 199.012 205.346 199.012 204.35V202.917C199.012 201.921 199.311 201.125 199.908 200.528C200.525 199.91 201.361 199.363 202.416 198.885C203.093 198.547 203.641 198.248 204.059 197.989C204.497 197.73 204.825 197.442 205.044 197.123C205.263 196.805 205.373 196.377 205.373 195.839V195.212C205.373 194.734 205.273 194.366 205.074 194.107C204.875 193.848 204.606 193.669 204.268 193.569C203.949 193.47 203.611 193.42 203.253 193.42C202.357 193.42 201.769 193.669 201.491 194.167C201.212 194.644 201.073 195.361 201.073 196.317V197.571H199.37V196.138C199.37 195.401 199.47 194.754 199.669 194.197C199.868 193.619 200.246 193.171 200.804 192.853C201.361 192.514 202.178 192.345 203.253 192.345C204.387 192.345 205.234 192.474 205.791 192.733C206.368 192.992 206.747 193.36 206.926 193.838C207.125 194.316 207.224 194.883 207.224 195.54V207.426H205.403L205.373 205.575C205.134 206.251 204.706 206.769 204.089 207.127C203.472 207.466 202.805 207.635 202.088 207.635ZM202.775 206.381C203.671 206.381 204.318 206.062 204.716 205.425C205.134 204.788 205.343 203.942 205.343 202.887V198.168C205.144 198.487 204.815 198.776 204.358 199.034C203.9 199.293 203.432 199.552 202.954 199.811C202.277 200.209 201.749 200.627 201.371 201.065C201.013 201.483 200.834 202.071 200.834 202.827V203.992C200.834 204.709 200.933 205.236 201.132 205.575C201.331 205.913 201.58 206.132 201.879 206.232C202.178 206.331 202.476 206.381 202.775 206.381ZM210.132 207.426V192.644H211.655L211.894 194.226C212.054 193.629 212.422 193.171 212.999 192.853C213.577 192.534 214.174 192.375 214.791 192.375C215.846 192.375 216.613 192.564 217.091 192.942C217.588 193.301 217.907 193.778 218.046 194.376C218.186 194.953 218.255 195.59 218.255 196.287V207.426H216.404V196.556C216.404 196.197 216.394 195.849 216.374 195.511C216.354 195.172 216.274 194.873 216.135 194.615C216.016 194.336 215.807 194.117 215.508 193.958C215.209 193.798 214.771 193.719 214.194 193.719C213.696 193.719 213.288 193.818 212.969 194.017C212.671 194.197 212.442 194.416 212.283 194.674C212.143 194.913 212.044 195.142 211.984 195.361V207.426H210.132ZM241.305 207.635C240.23 207.635 239.394 207.506 238.796 207.247C238.199 206.968 237.781 206.54 237.542 205.963C237.303 205.366 237.184 204.579 237.184 203.604V202.319H239.065V204.022C239.065 204.957 239.224 205.604 239.543 205.963C239.862 206.321 240.439 206.5 241.275 206.5C242.012 206.5 242.549 206.321 242.888 205.963C243.246 205.604 243.425 204.997 243.425 204.141V203.305C243.425 202.847 243.356 202.459 243.216 202.14C243.077 201.802 242.808 201.493 242.41 201.214C242.032 200.936 241.494 200.657 240.797 200.378C240.14 200.119 239.563 199.841 239.065 199.542C238.567 199.243 238.169 198.865 237.871 198.407C237.592 197.949 237.453 197.362 237.453 196.645V195.749C237.453 194.694 237.751 193.878 238.348 193.301C238.966 192.703 240.001 192.405 241.454 192.405C242.41 192.405 243.166 192.534 243.724 192.793C244.301 193.052 244.719 193.47 244.978 194.047C245.257 194.625 245.396 195.371 245.396 196.287V197.541H243.575V196.108C243.575 195.112 243.405 194.435 243.067 194.077C242.728 193.699 242.191 193.51 241.454 193.51C240.618 193.51 240.051 193.709 239.752 194.107C239.473 194.505 239.334 195.003 239.334 195.6V196.406C239.334 196.964 239.453 197.422 239.692 197.78C239.951 198.139 240.309 198.437 240.767 198.676C241.225 198.915 241.773 199.164 242.41 199.423C242.987 199.662 243.495 199.92 243.933 200.199C244.391 200.458 244.749 200.816 245.008 201.274C245.267 201.732 245.396 202.359 245.396 203.156V203.842C245.396 204.639 245.267 205.326 245.008 205.903C244.769 206.461 244.351 206.889 243.754 207.187C243.156 207.486 242.34 207.635 241.305 207.635ZM248.074 207.426V188.612H249.836V193.868C250.075 193.41 250.434 193.052 250.911 192.793C251.389 192.514 251.997 192.375 252.733 192.375C253.788 192.375 254.555 192.564 255.033 192.942C255.53 193.301 255.849 193.778 255.988 194.376C256.128 194.953 256.197 195.59 256.197 196.287V207.426H254.346V196.556C254.346 196.257 254.336 195.949 254.316 195.63C254.296 195.292 254.216 194.983 254.077 194.704C253.958 194.425 253.749 194.197 253.45 194.017C253.151 193.818 252.713 193.719 252.136 193.719C251.618 193.719 251.19 193.808 250.852 193.987C250.533 194.147 250.294 194.336 250.135 194.555C249.996 194.774 249.926 194.963 249.926 195.122V207.426H248.074ZM262.831 207.635C261.915 207.635 261.148 207.516 260.531 207.277C259.934 207.018 259.486 206.57 259.187 205.933C258.908 205.296 258.769 204.42 258.769 203.305V196.406C258.769 194.973 259.078 193.948 259.695 193.33C260.332 192.713 261.377 192.405 262.831 192.405C264.284 192.405 265.319 192.703 265.936 193.301C266.573 193.898 266.892 194.933 266.892 196.406V203.305C266.892 204.42 266.753 205.296 266.474 205.933C266.195 206.55 265.757 206.988 265.16 207.247C264.563 207.506 263.786 207.635 262.831 207.635ZM262.831 206.47C263.627 206.47 264.194 206.271 264.533 205.873C264.871 205.475 265.04 204.748 265.04 203.693V196.317C265.04 195.341 264.881 194.644 264.563 194.226C264.244 193.788 263.667 193.569 262.831 193.569C262.054 193.569 261.487 193.778 261.128 194.197C260.79 194.595 260.621 195.301 260.621 196.317V203.693C260.621 204.728 260.79 205.455 261.128 205.873C261.487 206.271 262.054 206.47 262.831 206.47ZM269.656 210.89V192.644H271.388L271.447 193.958C271.627 193.54 271.915 193.181 272.313 192.883C272.712 192.584 273.369 192.435 274.284 192.435C275.22 192.435 275.937 192.594 276.435 192.912C276.932 193.231 277.281 193.669 277.48 194.226C277.679 194.784 277.778 195.431 277.778 196.168V203.454C277.778 204.271 277.689 204.997 277.51 205.634C277.331 206.271 276.992 206.769 276.494 207.127C275.997 207.466 275.26 207.635 274.284 207.635C273.528 207.635 272.921 207.516 272.463 207.277C272.025 207.038 271.696 206.739 271.477 206.381V210.89H269.656ZM273.717 206.5C274.274 206.5 274.703 206.421 275.001 206.261C275.3 206.102 275.519 205.893 275.658 205.634C275.798 205.356 275.877 205.057 275.897 204.738C275.917 204.4 275.927 204.042 275.927 203.663V196.466C275.927 196.088 275.917 195.739 275.897 195.421C275.877 195.082 275.798 194.774 275.658 194.495C275.519 194.216 275.3 193.997 275.001 193.838C274.703 193.679 274.274 193.599 273.717 193.599C273.16 193.599 272.732 193.699 272.433 193.898C272.134 194.097 271.915 194.366 271.776 194.704C271.637 195.023 271.557 195.371 271.537 195.749C271.517 196.128 271.507 196.486 271.507 196.825V203.872C271.507 204.35 271.547 204.798 271.627 205.216C271.726 205.614 271.925 205.933 272.224 206.172C272.542 206.391 273.04 206.5 273.717 206.5ZM300.891 207.695C299.916 207.695 299.119 207.585 298.502 207.366C297.885 207.127 297.437 206.709 297.158 206.112C296.88 205.495 296.74 204.599 296.74 203.424V196.138C296.74 194.684 297.049 193.699 297.666 193.181C298.303 192.644 299.348 192.375 300.802 192.375C302.215 192.375 303.231 192.634 303.848 193.151C304.485 193.669 304.803 194.625 304.803 196.018V197.959H302.952V195.958C302.952 195.102 302.813 194.485 302.534 194.107C302.255 193.709 301.678 193.51 300.802 193.51C299.926 193.51 299.338 193.709 299.04 194.107C298.741 194.485 298.592 195.102 298.592 195.958V203.902C298.592 204.858 298.741 205.535 299.04 205.933C299.338 206.311 299.946 206.5 300.861 206.5C301.698 206.5 302.255 206.311 302.534 205.933C302.813 205.555 302.952 204.878 302.952 203.902V201.901H304.803V203.424C304.803 204.559 304.664 205.435 304.385 206.052C304.107 206.67 303.679 207.098 303.101 207.337C302.524 207.575 301.787 207.695 300.891 207.695ZM311.155 207.635C310.239 207.635 309.473 207.516 308.855 207.277C308.258 207.018 307.81 206.57 307.511 205.933C307.233 205.296 307.093 204.42 307.093 203.305V196.406C307.093 194.973 307.402 193.948 308.019 193.33C308.656 192.713 309.701 192.405 311.155 192.405C312.608 192.405 313.643 192.703 314.261 193.301C314.898 193.898 315.216 194.933 315.216 196.406V203.305C315.216 204.42 315.077 205.296 314.798 205.933C314.519 206.55 314.081 206.988 313.484 207.247C312.887 207.506 312.11 207.635 311.155 207.635ZM311.155 206.47C311.951 206.47 312.519 206.271 312.857 205.873C313.196 205.475 313.365 204.748 313.365 203.693V196.317C313.365 195.341 313.205 194.644 312.887 194.226C312.568 193.788 311.991 193.569 311.155 193.569C310.378 193.569 309.811 193.778 309.453 194.197C309.114 194.595 308.945 195.301 308.945 196.317V203.693C308.945 204.728 309.114 205.455 309.453 205.873C309.811 206.271 310.378 206.47 311.155 206.47ZM321.683 207.635C320.767 207.635 320.001 207.516 319.383 207.277C318.786 207.018 318.338 206.57 318.04 205.933C317.761 205.296 317.621 204.42 317.621 203.305V196.406C317.621 194.973 317.93 193.948 318.547 193.33C319.184 192.713 320.23 192.405 321.683 192.405C323.136 192.405 324.172 192.703 324.789 193.301C325.426 193.898 325.744 194.933 325.744 196.406V203.305C325.744 204.42 325.605 205.296 325.326 205.933C325.048 206.55 324.61 206.988 324.012 207.247C323.415 207.506 322.639 207.635 321.683 207.635ZM321.683 206.47C322.479 206.47 323.047 206.271 323.385 205.873C323.724 205.475 323.893 204.748 323.893 203.693V196.317C323.893 195.341 323.734 194.644 323.415 194.226C323.096 193.788 322.519 193.569 321.683 193.569C320.906 193.569 320.339 193.778 319.981 194.197C319.642 194.595 319.473 195.301 319.473 196.317V203.693C319.473 204.728 319.642 205.455 319.981 205.873C320.339 206.271 320.906 206.47 321.683 206.47ZM334.54 207.426L330.837 198.855L334.63 192.644H336.482L332.659 198.855L336.511 207.426H334.54ZM328.508 207.426V188.493H330.33V207.426H328.508Z" fill="black"/>
<path d="M150.274 165.965C147.163 165.965 144.612 165.623 142.621 164.938C140.63 164.192 139.168 162.854 138.235 160.925C137.302 158.935 136.835 156.01 136.835 152.153V130.035C136.835 125.431 137.862 122.289 139.915 120.61C142.03 118.93 145.39 118.09 149.994 118.09C154.535 118.09 157.833 118.93 159.886 120.61C162.001 122.227 163.059 125.245 163.059 129.662V135.821H155.966V129.289C155.966 126.862 155.562 125.12 154.753 124.062C154.007 122.943 152.42 122.383 149.994 122.383C147.629 122.383 146.012 122.943 145.141 124.062C144.332 125.12 143.928 126.862 143.928 129.289V154.206C143.928 156.881 144.332 158.779 145.141 159.899C146.012 160.957 147.692 161.485 150.18 161.485C152.482 161.485 154.007 160.957 154.753 159.899C155.562 158.841 155.966 156.944 155.966 154.206V147.487H163.059V152.153C163.059 155.886 162.592 158.748 161.659 160.739C160.726 162.73 159.295 164.098 157.366 164.845C155.5 165.592 153.136 165.965 150.274 165.965ZM180.843 165.872C177.67 165.872 175.306 165.312 173.75 164.192C172.257 163.072 171.262 161.579 170.764 159.712C170.329 157.846 170.111 155.824 170.111 153.646V118.93H177.203V152.9C177.203 154.144 177.266 155.357 177.39 156.539C177.577 157.721 178.106 158.717 178.977 159.526C179.848 160.272 181.279 160.645 183.269 160.645C184.7 160.645 185.82 160.397 186.629 159.899C187.5 159.401 188.153 158.841 188.589 158.219C189.024 157.535 189.304 156.912 189.429 156.353V118.93H196.521V165.125H190.455L189.895 159.992C189.398 161.548 188.371 162.916 186.816 164.098C185.323 165.281 183.332 165.872 180.843 165.872ZM205.667 165.125V118.93H211.64L212.293 124.062C212.978 122.383 214.035 121.169 215.466 120.423C216.897 119.614 218.359 119.116 219.852 118.93C221.657 118.432 223.461 118.339 225.265 118.65V124.249C225.016 124.187 224.55 124.125 223.865 124.062C223.243 123.938 222.528 123.907 221.719 123.969C220.91 123.969 220.163 124.125 219.479 124.436C217.488 124.747 215.871 125.556 214.626 126.862C213.382 128.169 212.76 129.88 212.76 131.995V165.125H205.667ZM242.413 165.965C239.302 165.965 236.751 165.623 234.76 164.938C232.769 164.192 231.307 162.854 230.374 160.925C229.441 158.935 228.974 156.01 228.974 152.153V130.035C228.974 125.431 230.001 122.289 232.054 120.61C234.169 118.93 237.529 118.09 242.133 118.09C246.675 118.09 249.972 118.93 252.025 120.61C254.14 122.227 255.198 125.245 255.198 129.662V135.821H248.105V129.289C248.105 126.862 247.701 125.12 246.892 124.062C246.146 122.943 244.559 122.383 242.133 122.383C239.769 122.383 238.151 122.943 237.28 124.062C236.471 125.12 236.067 126.862 236.067 129.289V154.206C236.067 156.881 236.471 158.779 237.28 159.899C238.151 160.957 239.831 161.485 242.319 161.485C244.621 161.485 246.146 160.957 246.892 159.899C247.701 158.841 248.105 156.944 248.105 154.206V147.487H255.198V152.153C255.198 155.886 254.731 158.748 253.798 160.739C252.865 162.73 251.434 164.098 249.505 164.845C247.639 165.592 245.275 165.965 242.413 165.965ZM272.982 165.872C269.809 165.872 267.445 165.312 265.89 164.192C264.396 163.072 263.401 161.579 262.903 159.712C262.468 157.846 262.25 155.824 262.25 153.646V118.93H269.342V152.9C269.342 154.144 269.405 155.357 269.529 156.539C269.716 157.721 270.245 158.717 271.116 159.526C271.987 160.272 273.418 160.645 275.409 160.645C276.84 160.645 277.959 160.397 278.768 159.899C279.639 159.401 280.292 158.841 280.728 158.219C281.164 157.535 281.443 156.912 281.568 156.353V118.93H288.661V165.125H282.594L282.035 159.992C281.537 161.548 280.51 162.916 278.955 164.098C277.462 165.281 275.471 165.872 272.982 165.872ZM297.806 165.125V118.93H303.779L304.432 124.156C305.117 122.352 306.237 120.921 307.792 119.863C309.41 118.743 311.369 118.183 313.671 118.183C317.218 118.183 319.706 118.93 321.137 120.423C322.63 121.916 323.439 124.094 323.564 126.956H322.537C323.035 124.342 324.155 122.227 325.897 120.61C327.701 118.992 329.972 118.183 332.709 118.183C336.567 118.183 339.211 119.116 340.642 120.983C342.073 122.787 342.788 125.556 342.788 129.289V165.125H335.696V130.315C335.696 127.64 335.291 125.805 334.483 124.809C333.674 123.814 332.274 123.316 330.283 123.316C328.541 123.316 327.048 123.845 325.803 124.902C324.621 125.898 323.937 127.173 323.75 128.729V165.125H316.658V129.662C316.658 127.36 316.253 125.742 315.444 124.809C314.698 123.814 313.298 123.316 311.245 123.316C309.441 123.316 308.041 123.751 307.045 124.622C306.05 125.493 305.334 126.52 304.899 127.702V165.125H297.806ZM363.347 165.778C360.36 165.778 357.872 165.405 355.881 164.658C353.952 163.912 352.49 162.512 351.494 160.459C350.561 158.406 350.095 155.513 350.095 151.78V130.782C350.095 126.178 351.121 122.943 353.174 121.076C355.29 119.147 358.68 118.183 363.347 118.183C367.951 118.183 371.279 119.116 373.332 120.983C375.448 122.849 376.505 126.116 376.505 130.782V151.78C376.505 155.45 376.039 158.312 375.105 160.365C374.172 162.419 372.71 163.85 370.719 164.658C368.79 165.405 366.333 165.778 363.347 165.778ZM363.347 161.392C365.524 161.392 367.08 160.832 368.013 159.712C368.946 158.592 369.413 156.57 369.413 153.646V130.315C369.413 127.515 368.946 125.525 368.013 124.342C367.142 123.16 365.586 122.569 363.347 122.569C361.169 122.569 359.583 123.16 358.587 124.342C357.654 125.462 357.187 127.453 357.187 130.315V153.646C357.187 156.57 357.654 158.592 358.587 159.712C359.583 160.832 361.169 161.392 363.347 161.392Z" fill="black"/>
<path d="M279.598 28.6621C280.66 28.3082 282.075 28.3082 283.491 28.3082C294.106 28.3082 302.953 37.1546 302.953 47.7701C302.953 58.3857 294.106 67.2321 283.491 67.2321L285.26 99.0788H228.643L230.413 67.2321C219.797 67.2321 210.951 58.3857 210.951 47.7701C210.951 37.1546 219.797 28.3082 230.413 28.3082C231.828 28.3082 233.244 28.3082 234.305 28.6621" stroke="black" stroke-width="7.07706" stroke-miterlimit="10" stroke-linecap="round" stroke-linejoin="round"/>
<path d="M281.721 38.9238C281.721 25.1236 270.752 14.1541 256.952 14.1541C243.151 14.1541 232.182 25.1236 232.182 38.9238" stroke="black" stroke-width="7.07706" stroke-miterlimit="10" stroke-linecap="round" stroke-linejoin="round"/>
<path d="M256.952 74.3091V84.9247" stroke="black" stroke-width="7.07706" stroke-miterlimit="10" stroke-linecap="round" stroke-linejoin="round"/>
<path d="M244.567 74.3091L242.798 83.8632" stroke="black" stroke-width="7.07706" stroke-miterlimit="10" stroke-linecap="round" stroke-linejoin="round"/>
<path d="M269.337 74.3091L271.106 83.8632" stroke="black" stroke-width="7.07706" stroke-miterlimit="10" stroke-linecap="round" stroke-linejoin="round"/>
</svg>
