<svg width="519" height="254" viewBox="0 0 519 254" fill="none" xmlns="http://www.w3.org/2000/svg">
<rect x="13" width="490" height="254" fill="#FFEECB"/>
<path d="M183.506 220.89V202.644H185.238L185.298 203.958C185.477 203.54 185.766 203.181 186.164 202.883C186.562 202.584 187.219 202.435 188.135 202.435C189.071 202.435 189.787 202.594 190.285 202.912C190.783 203.231 191.131 203.669 191.33 204.226C191.529 204.784 191.629 205.431 191.629 206.168V213.454C191.629 214.271 191.539 214.997 191.36 215.634C191.181 216.271 190.842 216.769 190.345 217.128C189.847 217.466 189.11 217.635 188.135 217.635C187.378 217.635 186.771 217.516 186.313 217.277C185.875 217.038 185.547 216.739 185.328 216.381V220.89H183.506ZM187.567 216.5C188.125 216.5 188.553 216.421 188.852 216.261C189.15 216.102 189.369 215.893 189.509 215.634C189.648 215.356 189.728 215.057 189.747 214.738C189.767 214.4 189.777 214.042 189.777 213.663V206.466C189.777 206.088 189.767 205.74 189.747 205.421C189.728 205.083 189.648 204.774 189.509 204.495C189.369 204.216 189.15 203.997 188.852 203.838C188.553 203.679 188.125 203.599 187.567 203.599C187.01 203.599 186.582 203.699 186.283 203.898C185.985 204.097 185.766 204.366 185.626 204.704C185.487 205.023 185.407 205.371 185.387 205.749C185.367 206.128 185.358 206.486 185.358 206.825V213.872C185.358 214.35 185.397 214.798 185.477 215.216C185.577 215.614 185.776 215.933 186.074 216.172C186.393 216.391 186.891 216.5 187.567 216.5ZM194.413 217.426V198.493H196.235V217.426H194.413ZM202.088 217.635C201.63 217.635 201.162 217.566 200.684 217.426C200.226 217.307 199.828 217.018 199.49 216.56C199.171 216.082 199.012 215.346 199.012 214.35V212.917C199.012 211.921 199.311 211.125 199.908 210.528C200.525 209.91 201.361 209.363 202.416 208.885C203.093 208.547 203.641 208.248 204.059 207.989C204.497 207.73 204.825 207.442 205.044 207.123C205.263 206.805 205.373 206.377 205.373 205.839V205.212C205.373 204.734 205.273 204.366 205.074 204.107C204.875 203.848 204.606 203.669 204.268 203.569C203.949 203.47 203.611 203.42 203.253 203.42C202.357 203.42 201.769 203.669 201.491 204.167C201.212 204.645 201.073 205.361 201.073 206.317V207.571H199.37V206.138C199.37 205.401 199.47 204.754 199.669 204.197C199.868 203.619 200.246 203.171 200.804 202.853C201.361 202.514 202.178 202.345 203.253 202.345C204.387 202.345 205.234 202.474 205.791 202.733C206.368 202.992 206.747 203.36 206.926 203.838C207.125 204.316 207.224 204.883 207.224 205.54V217.426H205.403L205.373 215.575C205.134 216.252 204.706 216.769 204.089 217.128C203.472 217.466 202.805 217.635 202.088 217.635ZM202.775 216.381C203.671 216.381 204.318 216.062 204.716 215.425C205.134 214.788 205.343 213.942 205.343 212.887V208.168C205.144 208.487 204.815 208.776 204.358 209.034C203.9 209.293 203.432 209.552 202.954 209.811C202.277 210.209 201.749 210.627 201.371 211.065C201.013 211.483 200.834 212.071 200.834 212.827V213.992C200.834 214.709 200.933 215.236 201.132 215.575C201.331 215.913 201.58 216.132 201.879 216.232C202.178 216.331 202.476 216.381 202.775 216.381ZM210.132 217.426V202.644H211.655L211.894 204.226C212.054 203.629 212.422 203.171 212.999 202.853C213.577 202.534 214.174 202.375 214.791 202.375C215.846 202.375 216.613 202.564 217.091 202.942C217.588 203.301 217.907 203.778 218.046 204.376C218.186 204.953 218.255 205.59 218.255 206.287V217.426H216.404V206.556C216.404 206.197 216.394 205.849 216.374 205.511C216.354 205.172 216.274 204.873 216.135 204.615C216.016 204.336 215.807 204.117 215.508 203.958C215.209 203.798 214.771 203.719 214.194 203.719C213.696 203.719 213.288 203.818 212.969 204.017C212.671 204.197 212.442 204.416 212.283 204.674C212.143 204.913 212.044 205.142 211.984 205.361V217.426H210.132ZM241.305 217.635C240.23 217.635 239.394 217.506 238.796 217.247C238.199 216.968 237.781 216.54 237.542 215.963C237.303 215.366 237.184 214.579 237.184 213.604V212.319H239.065V214.022C239.065 214.957 239.224 215.604 239.543 215.963C239.862 216.321 240.439 216.5 241.275 216.5C242.012 216.5 242.549 216.321 242.888 215.963C243.246 215.604 243.425 214.997 243.425 214.141V213.305C243.425 212.847 243.356 212.459 243.216 212.14C243.077 211.802 242.808 211.493 242.41 211.215C242.032 210.936 241.494 210.657 240.797 210.378C240.14 210.12 239.563 209.841 239.065 209.542C238.567 209.244 238.169 208.865 237.871 208.407C237.592 207.949 237.453 207.362 237.453 206.645V205.749C237.453 204.694 237.751 203.878 238.348 203.301C238.966 202.703 240.001 202.405 241.454 202.405C242.41 202.405 243.166 202.534 243.724 202.793C244.301 203.052 244.719 203.47 244.978 204.047C245.257 204.625 245.396 205.371 245.396 206.287V207.541H243.575V206.108C243.575 205.112 243.405 204.435 243.067 204.077C242.728 203.699 242.191 203.51 241.454 203.51C240.618 203.51 240.051 203.709 239.752 204.107C239.473 204.505 239.334 205.003 239.334 205.6V206.406C239.334 206.964 239.453 207.422 239.692 207.78C239.951 208.139 240.309 208.437 240.767 208.676C241.225 208.915 241.773 209.164 242.41 209.423C242.987 209.662 243.495 209.92 243.933 210.199C244.391 210.458 244.749 210.816 245.008 211.274C245.267 211.732 245.396 212.359 245.396 213.156V213.843C245.396 214.639 245.267 215.326 245.008 215.903C244.769 216.461 244.351 216.889 243.754 217.187C243.156 217.486 242.34 217.635 241.305 217.635ZM248.074 217.426V198.612H249.836V203.868C250.075 203.41 250.434 203.052 250.911 202.793C251.389 202.514 251.997 202.375 252.733 202.375C253.788 202.375 254.555 202.564 255.033 202.942C255.53 203.301 255.849 203.778 255.988 204.376C256.128 204.953 256.197 205.59 256.197 206.287V217.426H254.346V206.556C254.346 206.257 254.336 205.949 254.316 205.63C254.296 205.292 254.216 204.983 254.077 204.704C253.958 204.426 253.749 204.197 253.45 204.017C253.151 203.818 252.713 203.719 252.136 203.719C251.618 203.719 251.19 203.808 250.852 203.988C250.533 204.147 250.294 204.336 250.135 204.555C249.996 204.774 249.926 204.963 249.926 205.122V217.426H248.074ZM262.831 217.635C261.915 217.635 261.148 217.516 260.531 217.277C259.934 217.018 259.486 216.57 259.187 215.933C258.908 215.296 258.769 214.42 258.769 213.305V206.406C258.769 204.973 259.078 203.948 259.695 203.331C260.332 202.713 261.377 202.405 262.831 202.405C264.284 202.405 265.319 202.703 265.936 203.301C266.573 203.898 266.892 204.933 266.892 206.406V213.305C266.892 214.42 266.753 215.296 266.474 215.933C266.195 216.55 265.757 216.988 265.16 217.247C264.563 217.506 263.786 217.635 262.831 217.635ZM262.831 216.471C263.627 216.471 264.194 216.271 264.533 215.873C264.871 215.475 265.04 214.748 265.04 213.693V206.317C265.04 205.341 264.881 204.645 264.563 204.226C264.244 203.788 263.667 203.569 262.831 203.569C262.054 203.569 261.487 203.778 261.128 204.197C260.79 204.595 260.621 205.302 260.621 206.317V213.693C260.621 214.728 260.79 215.455 261.128 215.873C261.487 216.271 262.054 216.471 262.831 216.471ZM269.656 220.89V202.644H271.388L271.447 203.958C271.627 203.54 271.915 203.181 272.313 202.883C272.712 202.584 273.369 202.435 274.284 202.435C275.22 202.435 275.937 202.594 276.435 202.912C276.932 203.231 277.281 203.669 277.48 204.226C277.679 204.784 277.778 205.431 277.778 206.168V213.454C277.778 214.271 277.689 214.997 277.51 215.634C277.331 216.271 276.992 216.769 276.494 217.128C275.997 217.466 275.26 217.635 274.284 217.635C273.528 217.635 272.921 217.516 272.463 217.277C272.025 217.038 271.696 216.739 271.477 216.381V220.89H269.656ZM273.717 216.5C274.274 216.5 274.703 216.421 275.001 216.261C275.3 216.102 275.519 215.893 275.658 215.634C275.798 215.356 275.877 215.057 275.897 214.738C275.917 214.4 275.927 214.042 275.927 213.663V206.466C275.927 206.088 275.917 205.74 275.897 205.421C275.877 205.083 275.798 204.774 275.658 204.495C275.519 204.216 275.3 203.997 275.001 203.838C274.703 203.679 274.274 203.599 273.717 203.599C273.16 203.599 272.732 203.699 272.433 203.898C272.134 204.097 271.915 204.366 271.776 204.704C271.637 205.023 271.557 205.371 271.537 205.749C271.517 206.128 271.507 206.486 271.507 206.825V213.872C271.507 214.35 271.547 214.798 271.627 215.216C271.726 215.614 271.925 215.933 272.224 216.172C272.542 216.391 273.04 216.5 273.717 216.5ZM300.891 217.695C299.916 217.695 299.119 217.585 298.502 217.366C297.885 217.128 297.437 216.709 297.158 216.112C296.88 215.495 296.74 214.599 296.74 213.424V206.138C296.74 204.684 297.049 203.699 297.666 203.181C298.303 202.644 299.348 202.375 300.802 202.375C302.215 202.375 303.231 202.634 303.848 203.151C304.485 203.669 304.803 204.625 304.803 206.018V207.959H302.952V205.959C302.952 205.102 302.813 204.485 302.534 204.107C302.255 203.709 301.678 203.51 300.802 203.51C299.926 203.51 299.338 203.709 299.04 204.107C298.741 204.485 298.592 205.102 298.592 205.959V213.902C298.592 214.858 298.741 215.535 299.04 215.933C299.338 216.311 299.946 216.5 300.861 216.5C301.698 216.5 302.255 216.311 302.534 215.933C302.813 215.555 302.952 214.878 302.952 213.902V211.901H304.803V213.424C304.803 214.559 304.664 215.435 304.385 216.052C304.107 216.67 303.679 217.098 303.101 217.337C302.524 217.575 301.787 217.695 300.891 217.695ZM311.155 217.635C310.239 217.635 309.473 217.516 308.855 217.277C308.258 217.018 307.81 216.57 307.511 215.933C307.233 215.296 307.093 214.42 307.093 213.305V206.406C307.093 204.973 307.402 203.948 308.019 203.331C308.656 202.713 309.701 202.405 311.155 202.405C312.608 202.405 313.643 202.703 314.261 203.301C314.898 203.898 315.216 204.933 315.216 206.406V213.305C315.216 214.42 315.077 215.296 314.798 215.933C314.519 216.55 314.081 216.988 313.484 217.247C312.887 217.506 312.11 217.635 311.155 217.635ZM311.155 216.471C311.951 216.471 312.519 216.271 312.857 215.873C313.196 215.475 313.365 214.748 313.365 213.693V206.317C313.365 205.341 313.205 204.645 312.887 204.226C312.568 203.788 311.991 203.569 311.155 203.569C310.378 203.569 309.811 203.778 309.453 204.197C309.114 204.595 308.945 205.302 308.945 206.317V213.693C308.945 214.728 309.114 215.455 309.453 215.873C309.811 216.271 310.378 216.471 311.155 216.471ZM321.683 217.635C320.767 217.635 320.001 217.516 319.383 217.277C318.786 217.018 318.338 216.57 318.04 215.933C317.761 215.296 317.621 214.42 317.621 213.305V206.406C317.621 204.973 317.93 203.948 318.547 203.331C319.184 202.713 320.23 202.405 321.683 202.405C323.136 202.405 324.172 202.703 324.789 203.301C325.426 203.898 325.744 204.933 325.744 206.406V213.305C325.744 214.42 325.605 215.296 325.326 215.933C325.048 216.55 324.61 216.988 324.012 217.247C323.415 217.506 322.639 217.635 321.683 217.635ZM321.683 216.471C322.479 216.471 323.047 216.271 323.385 215.873C323.724 215.475 323.893 214.748 323.893 213.693V206.317C323.893 205.341 323.734 204.645 323.415 204.226C323.096 203.788 322.519 203.569 321.683 203.569C320.906 203.569 320.339 203.778 319.981 204.197C319.642 204.595 319.473 205.302 319.473 206.317V213.693C319.473 214.728 319.642 215.455 319.981 215.873C320.339 216.271 320.906 216.471 321.683 216.471ZM334.54 217.426L330.837 208.855L334.63 202.644H336.482L332.659 208.855L336.511 217.426H334.54ZM328.508 217.426V198.493H330.33V217.426H328.508Z" fill="black"/>
<path d="M150.274 175.965C147.163 175.965 144.612 175.623 142.621 174.938C140.63 174.192 139.168 172.854 138.235 170.925C137.302 168.935 136.835 166.01 136.835 162.153V140.035C136.835 135.431 137.862 132.289 139.915 130.61C142.03 128.93 145.39 128.09 149.994 128.09C154.535 128.09 157.833 128.93 159.886 130.61C162.001 132.227 163.059 135.245 163.059 139.662V145.821H155.966V139.289C155.966 136.862 155.562 135.12 154.753 134.062C154.007 132.943 152.42 132.383 149.994 132.383C147.629 132.383 146.012 132.943 145.141 134.062C144.332 135.12 143.928 136.862 143.928 139.289V164.206C143.928 166.881 144.332 168.779 145.141 169.899C146.012 170.957 147.692 171.485 150.18 171.485C152.482 171.485 154.007 170.957 154.753 169.899C155.562 168.841 155.966 166.944 155.966 164.206V157.487H163.059V162.153C163.059 165.886 162.592 168.748 161.659 170.739C160.726 172.73 159.295 174.098 157.366 174.845C155.5 175.592 153.136 175.965 150.274 175.965ZM180.843 175.872C177.67 175.872 175.306 175.312 173.75 174.192C172.257 173.072 171.262 171.579 170.764 169.712C170.329 167.846 170.111 165.824 170.111 163.646V128.93H177.203V162.9C177.203 164.144 177.266 165.357 177.39 166.539C177.577 167.721 178.106 168.717 178.977 169.526C179.848 170.272 181.279 170.645 183.269 170.645C184.7 170.645 185.82 170.397 186.629 169.899C187.5 169.401 188.153 168.841 188.589 168.219C189.024 167.535 189.304 166.912 189.429 166.353V128.93H196.521V175.125H190.455L189.895 169.992C189.398 171.548 188.371 172.916 186.816 174.098C185.323 175.281 183.332 175.872 180.843 175.872ZM205.667 175.125V128.93H211.64L212.293 134.062C212.978 132.383 214.035 131.169 215.466 130.423C216.897 129.614 218.359 129.116 219.852 128.93C221.657 128.432 223.461 128.339 225.265 128.65V134.249C225.016 134.187 224.55 134.125 223.865 134.062C223.243 133.938 222.528 133.907 221.719 133.969C220.91 133.969 220.164 134.125 219.479 134.436C217.488 134.747 215.871 135.556 214.626 136.862C213.382 138.169 212.76 139.88 212.76 141.995V175.125H205.667ZM242.413 175.965C239.302 175.965 236.751 175.623 234.76 174.938C232.769 174.192 231.307 172.854 230.374 170.925C229.441 168.935 228.974 166.01 228.974 162.153V140.035C228.974 135.431 230.001 132.289 232.054 130.61C234.169 128.93 237.529 128.09 242.133 128.09C246.675 128.09 249.972 128.93 252.025 130.61C254.14 132.227 255.198 135.245 255.198 139.662V145.821H248.106V139.289C248.106 136.862 247.701 135.12 246.892 134.062C246.146 132.943 244.559 132.383 242.133 132.383C239.769 132.383 238.151 132.943 237.28 134.062C236.471 135.12 236.067 136.862 236.067 139.289V164.206C236.067 166.881 236.471 168.779 237.28 169.899C238.151 170.957 239.831 171.485 242.319 171.485C244.621 171.485 246.146 170.957 246.892 169.899C247.701 168.841 248.106 166.944 248.106 164.206V157.487H255.198V162.153C255.198 165.886 254.732 168.748 253.798 170.739C252.865 172.73 251.434 174.098 249.505 174.845C247.639 175.592 245.275 175.965 242.413 175.965ZM272.982 175.872C269.809 175.872 267.445 175.312 265.89 174.192C264.396 173.072 263.401 171.579 262.903 169.712C262.468 167.846 262.25 165.824 262.25 163.646V128.93H269.343V162.9C269.343 164.144 269.405 165.357 269.529 166.539C269.716 167.721 270.245 168.717 271.116 169.526C271.987 170.272 273.418 170.645 275.409 170.645C276.84 170.645 277.959 170.397 278.768 169.899C279.639 169.401 280.293 168.841 280.728 168.219C281.164 167.535 281.444 166.912 281.568 166.353V128.93H288.661V175.125H282.595L282.035 169.992C281.537 171.548 280.51 172.916 278.955 174.098C277.462 175.281 275.471 175.872 272.982 175.872ZM297.806 175.125V128.93H303.779L304.432 134.156C305.117 132.352 306.237 130.921 307.792 129.863C309.41 128.743 311.369 128.183 313.671 128.183C317.218 128.183 319.706 128.93 321.137 130.423C322.63 131.916 323.439 134.094 323.564 136.956H322.537C323.035 134.342 324.155 132.227 325.897 130.61C327.701 128.992 329.972 128.183 332.709 128.183C336.567 128.183 339.211 129.116 340.642 130.983C342.073 132.787 342.788 135.556 342.788 139.289V175.125H335.696V140.315C335.696 137.64 335.291 135.805 334.483 134.809C333.674 133.814 332.274 133.316 330.283 133.316C328.541 133.316 327.048 133.845 325.803 134.902C324.621 135.898 323.937 137.173 323.75 138.729V175.125H316.658V139.662C316.658 137.36 316.253 135.742 315.445 134.809C314.698 133.814 313.298 133.316 311.245 133.316C309.441 133.316 308.041 133.751 307.045 134.622C306.05 135.493 305.334 136.52 304.899 137.702V175.125H297.806ZM363.347 175.778C360.36 175.778 357.872 175.405 355.881 174.658C353.952 173.912 352.49 172.512 351.495 170.459C350.561 168.406 350.095 165.513 350.095 161.78V140.782C350.095 136.178 351.121 132.943 353.174 131.076C355.29 129.147 358.68 128.183 363.347 128.183C367.951 128.183 371.279 129.116 373.332 130.983C375.448 132.849 376.505 136.116 376.505 140.782V161.78C376.505 165.45 376.039 168.312 375.105 170.365C374.172 172.419 372.71 173.85 370.719 174.658C368.791 175.405 366.333 175.778 363.347 175.778ZM363.347 171.392C365.524 171.392 367.08 170.832 368.013 169.712C368.946 168.592 369.413 166.57 369.413 163.646V140.315C369.413 137.515 368.946 135.525 368.013 134.342C367.142 133.16 365.586 132.569 363.347 132.569C361.169 132.569 359.583 133.16 358.587 134.342C357.654 135.462 357.187 137.453 357.187 140.315V163.646C357.187 166.57 357.654 168.592 358.587 169.712C359.583 170.832 361.169 171.392 363.347 171.392Z" fill="black"/>
<path d="M279.598 38.6621C280.66 38.3082 282.075 38.3082 283.491 38.3082C294.106 38.3082 302.953 47.1546 302.953 57.7701C302.953 68.3857 294.106 77.2321 283.491 77.2321L285.26 109.079H228.643L230.413 77.2321C219.797 77.2321 210.951 68.3857 210.951 57.7701C210.951 47.1546 219.797 38.3082 230.413 38.3082C231.828 38.3082 233.244 38.3082 234.305 38.6621" stroke="black" stroke-width="7.07706" stroke-miterlimit="10" stroke-linecap="round" stroke-linejoin="round"/>
<path d="M281.721 48.9239C281.721 35.1236 270.752 24.1542 256.952 24.1542C243.151 24.1542 232.182 35.1236 232.182 48.9239" stroke="black" stroke-width="7.07706" stroke-miterlimit="10" stroke-linecap="round" stroke-linejoin="round"/>
<path d="M256.952 84.3091V94.9247" stroke="black" stroke-width="7.07706" stroke-miterlimit="10" stroke-linecap="round" stroke-linejoin="round"/>
<path d="M244.567 84.3091L242.798 93.8632" stroke="black" stroke-width="7.07706" stroke-miterlimit="10" stroke-linecap="round" stroke-linejoin="round"/>
<path d="M269.337 84.3091L271.106 93.8632" stroke="black" stroke-width="7.07706" stroke-miterlimit="10" stroke-linecap="round" stroke-linejoin="round"/>
</svg>
