<svg width="92" height="92" viewBox="0 0 92 92" fill="none" xmlns="http://www.w3.org/2000/svg">
<g clip-path="url(#clip0_197_578)">
<path d="M64.5976 30.7939L55.8835 13.5282V9.55093H56.3635C57.1588 9.55093 57.8035 8.90639 57.8035 8.11094V2.35095C57.8035 1.5555 57.1588 0.910957 56.3635 0.910957H35.5738C34.7786 0.910957 34.1338 1.5555 34.1338 2.35095V8.11094C34.1338 8.90639 34.7786 9.55093 35.5738 9.55093H36.0538V13.5282L27.3397 30.7939C26.283 32.8877 25.4551 36.3652 25.4551 38.7106V85.8707C25.4551 88.782 27.8236 91.1507 30.7351 91.1507H61.2021C64.1136 91.1507 66.4821 88.782 66.4821 85.8707V38.7106C66.4821 36.365 65.6544 32.8877 64.5976 30.7939ZM37.0138 3.79095H54.9233V6.67094H37.0138V3.79095ZM38.7795 14.5197C38.881 14.3185 38.9338 14.0963 38.9338 13.8709V9.55093H53.0033V13.8709C53.0033 14.0963 53.0561 14.3185 53.1577 14.5197L58.638 25.3778C57.599 25.7146 56.8708 26.2578 56.2405 26.7289C55.3857 27.3681 54.768 27.8297 53.391 27.8297C52.014 27.8297 51.3963 27.3681 50.5415 26.7289C49.5439 25.9832 48.3022 25.0549 45.9675 25.0549C43.633 25.0549 42.3915 25.9832 41.3939 26.7291C40.5393 27.3681 39.9219 27.8297 38.545 27.8297C37.1682 27.8297 36.5507 27.3681 35.6961 26.7291C35.066 26.258 34.3377 25.7148 33.299 25.378L38.7795 14.5197ZM63.6021 85.8707C63.6021 87.1941 62.5256 88.2707 61.2021 88.2707H30.7353C29.4118 88.2707 28.3353 87.1941 28.3353 85.8707V38.7106C28.3353 36.8148 29.0568 33.7837 29.911 32.0913L31.9723 28.0073C32.7989 28.1603 33.3161 28.5452 33.972 29.0354C34.9694 29.7813 36.2111 30.7096 38.5454 30.7096C40.8797 30.7096 42.1214 29.7813 43.1188 29.0354C43.9734 28.3964 44.5909 27.9349 45.9677 27.9349C47.3447 27.9349 47.9624 28.3964 48.8172 29.0356C49.8148 29.7815 51.0565 30.7096 53.391 30.7096C55.7257 30.7096 56.9672 29.7813 57.965 29.0356C58.6209 28.5452 59.1383 28.1603 59.9651 28.0073L62.0264 32.0915C62.8804 33.7836 63.6021 36.8148 63.6021 38.7106V85.8707Z" fill="black"/>
<path d="M32.6553 76.7507C31.8601 76.7507 31.2153 77.3953 31.2153 78.1907V83.9507C31.2153 84.7462 31.8601 85.3907 32.6553 85.3907C33.4506 85.3907 34.0953 84.7462 34.0953 83.9507V78.1907C34.0953 77.3953 33.4506 76.7507 32.6553 76.7507Z" fill="black"/>
<path d="M34.4165 32.7525C33.7065 32.3943 32.8406 32.6792 32.4821 33.389C31.8428 34.6558 31.2153 37.2916 31.2153 38.7107V72.4307C31.2153 73.2262 31.8601 73.8707 32.6553 73.8707C33.4506 73.8707 34.0953 73.2262 34.0953 72.4307V38.7107C34.0953 37.737 34.6145 35.5559 35.0532 34.6869C35.4115 33.9769 35.1264 33.1108 34.4165 32.7525Z" fill="black"/>
<path d="M43.2549 15.3109H48.6845C49.4798 15.3109 50.1245 14.6664 50.1245 13.8709C50.1245 13.0755 49.4798 12.4309 48.6845 12.4309H43.2549C42.4597 12.4309 41.8149 13.0755 41.8149 13.8709C41.8149 14.6664 42.4597 15.3109 43.2549 15.3109Z" fill="black"/>
</g>
<defs>
<clipPath id="clip0_197_578">
<rect width="90.2397" height="90.2397" fill="white" transform="translate(0.849121 0.91095)"/>
</clipPath>
</defs>
</svg>