<svg width="35" height="35" viewBox="0 0 35 35" fill="none" xmlns="http://www.w3.org/2000/svg">
<path d="M17.5007 1.26001C8.5322 1.26001 1.26074 8.52863 1.26074 17.5C1.26074 26.4685 8.5322 33.74 17.5007 33.74C26.4705 33.74 33.7407 26.4685 33.7407 17.5C33.7407 8.52863 26.4705 1.26001 17.5007 1.26001ZM17.5007 3.96681C21.0451 3.96681 24.2606 5.33869 26.6727 7.56925L24.2675 9.25293V7.35001H21.5607V11.1481L18.8539 13.0433V5.99681H16.1475V13.0409L13.4407 11.1473V7.35001H10.7339V18.729L5.01665 22.7305C4.34269 21.1207 3.96754 19.3526 3.96754 17.4996C3.96754 10.0251 10.0259 3.96681 17.5007 3.96681ZM18.8539 26.257V22.9526L21.5607 21.0578V24.3622L18.8539 26.257ZM13.4407 17.755V14.4497L16.1475 16.3462V19.649L13.4407 17.755ZM16.1475 22.953V26.2574L13.4407 24.3618V21.0574L16.1475 22.953ZM18.8539 19.649V16.3474L21.5607 14.4522V17.755L18.8539 19.649ZM6.32113 25.1231L10.7339 22.033V25.7706L16.1475 29.5611V30.9646C12.0648 30.5602 8.51921 28.3398 6.32113 25.1231ZM18.8539 30.9646V29.5611L24.2675 25.7706V12.557L28.4794 9.60696C30.0811 11.8302 31.0339 14.55 31.0339 17.4996C31.0339 24.5149 25.6934 30.2854 18.8539 30.9646Z" fill="black"/>
</svg>
