<svg version="1.2" xmlns="http://www.w3.org/2000/svg" viewBox="0 0 105 105" width="105" height="105">
	<title>no-gluten-icon-svg</title>
	<style>
		.s0 { fill: #000000 } 
	</style>
	<path id="Layer" fill-rule="evenodd" class="s0" d="m103.5 52.4c0 28.1-22.9 50.9-51 50.9-28.1 0-51-22.8-51-50.9 0-28.2 22.9-51 51-51 28.1 0 51 22.8 51 51zm-93.5 0c0 5.8 1.2 11.3 3.3 16.4l18-12.6v-35.7h8.5v11.9l8.5 6v-22.1h8.4v22.1l8.5-6v-11.9h8.5v6l7.6-5.3c-7.6-7-17.7-11.3-28.8-11.3-23.5 0-42.5 19-42.5 42.5zm85 0c0-9.3-3-17.8-8.1-24.8l-13.2 9.3v41.4l-17 11.9v4.4c21.5-2.1 38.3-20.2 38.3-42.2zm-46.7 6.7v-10.3l-8.5-6v10.4zm-8.5 4.4v10.4l8.5 5.9v-10.4zm25.4-10.3v-10.4l-8.5 6v10.3zm-16.9 41.5v-4.4l-17-11.9v-11.8l-13.9 9.7c6.9 10.1 18 17.1 30.9 18.4zm16.9-20.7v-10.4l-8.4 5.9v10.4z"/>
</svg>