<svg width="110" height="110" viewBox="0 0 110 110" fill="none" xmlns="http://www.w3.org/2000/svg">
<path d="M72.3721 62.6084L62.1055 55.7793L57.0638 63.3876L74.2971 74.8918L95.243 48.7209L88.093 42.9918L72.3721 62.6084Z" fill="black"/>
<path d="M91.6667 27.5H18.3333V36.6667H91.6667V27.5Z" fill="black"/>
<path d="M59.5833 73.3334H18.3333V82.5H59.5833V73.3334Z" fill="black"/>
<path d="M55 50.4167H18.3333V59.5833H55V50.4167Z" fill="black"/>
<path d="M91.6667 73.3334H82.5V82.5H91.6667V73.3334Z" fill="black"/>
<path d="M93.6833 4.58336H16.3167C13.2048 4.58336 10.2204 5.81955 8.01994 8.01997C5.81952 10.2204 4.58333 13.2048 4.58333 16.3167V93.6834C4.58333 96.7952 5.81952 99.7796 8.01994 101.98C10.2204 104.18 13.2048 105.417 16.3167 105.417H93.6833C96.7952 105.417 99.7796 104.18 101.98 101.98C104.18 99.7796 105.417 96.7952 105.417 93.6834V16.3167C105.417 13.2048 104.18 10.2204 101.98 8.01997C99.7796 5.81955 96.7952 4.58336 93.6833 4.58336ZM96.25 93.6834C96.25 94.3641 95.9796 95.0169 95.4982 95.4983C95.0169 95.9796 94.364 96.25 93.6833 96.25H16.3167C15.6359 96.25 14.9831 95.9796 14.5018 95.4983C14.0204 95.0169 13.75 94.3641 13.75 93.6834V16.3167C13.75 15.636 14.0204 14.9831 14.5018 14.5018C14.9831 14.0204 15.6359 13.75 16.3167 13.75H93.6833C94.364 13.75 95.0169 14.0204 95.4982 14.5018C95.9796 14.9831 96.25 15.636 96.25 16.3167V93.6834Z" fill="black"/>
</svg>