<svg width="50" height="50" viewBox="0 0 50 50" fill="none" xmlns="http://www.w3.org/2000/svg">
<path d="M18.75 39.0625C26.5165 39.0625 32.8125 32.7665 32.8125 25C32.8125 17.2335 26.5165 10.9375 18.75 10.9375C10.9835 10.9375 4.6875 17.2335 4.6875 25C4.6875 32.7665 10.9835 39.0625 18.75 39.0625Z" stroke="black" stroke-width="3.125" stroke-miterlimit="10" stroke-linecap="round" stroke-linejoin="round"/>
<path d="M18.75 34.375C23.9277 34.375 28.125 30.1777 28.125 25C28.125 19.8223 23.9277 15.625 18.75 15.625C13.5723 15.625 9.375 19.8223 9.375 25C9.375 30.1777 13.5723 34.375 18.75 34.375Z" stroke="black" stroke-width="3.125" stroke-miterlimit="10" stroke-linecap="round" stroke-linejoin="round"/>
<path d="M35.9375 7.8125V16.4062C35.9375 19.0625 36.5625 20.9375 37.6563 22.1875C39.0625 23.75 39.6875 25.625 39.5312 27.6563L37.9687 39.0625C37.8125 40.625 39.0625 42.1875 40.625 42.1875C42.3438 42.1875 43.5938 40.7813 43.2813 39.0625L41.7188 27.6563C41.5625 25.625 42.1875 23.5937 43.5937 22.1875C44.6875 21.0937 45.3125 19.0625 45.3125 16.4062V7.8125" stroke="black" stroke-width="3.125" stroke-miterlimit="10" stroke-linecap="round" stroke-linejoin="round"/>
<path d="M40.625 17.1875V7.8125" stroke="black" stroke-width="3.125" stroke-miterlimit="10" stroke-linecap="round" stroke-linejoin="round"/>
</svg>
