<svg width="130" height="130" viewBox="0 0 130 130" fill="none" xmlns="http://www.w3.org/2000/svg">
<path d="M66.9356 76.6826C64.4761 76.6826 63.3342 78.2637 63.3342 80.7232C63.3342 84.061 63.3342 87.3988 63.3342 90.8245C63.3342 94.5137 63.3342 98.115 63.3342 101.804C63.3342 104.264 64.564 105.845 66.9356 105.845C69.3072 105.845 70.5369 104.264 70.5369 101.804C70.5369 94.7772 70.5369 87.838 70.5369 80.811C70.5369 78.2637 69.395 76.6826 66.9356 76.6826Z" fill="black"/>
<path d="M88.811 105.669C91.1827 105.757 92.5002 104.264 92.5002 101.804C92.5002 94.6893 92.5002 87.4866 92.5002 80.3717C92.5002 78.1758 91.2705 76.6826 89.0745 76.6826C86.6151 76.5947 85.3854 78.088 85.3854 80.5474C85.3854 84.0609 85.3854 87.5744 85.3854 91.088C85.3854 94.6015 85.3854 98.115 85.3854 101.628C85.2975 104 86.4394 105.581 88.811 105.669Z" fill="black"/>
<path d="M48.5807 91.4393C48.5807 87.9258 48.5807 84.4123 48.5807 80.8988C48.5807 78.3515 47.6145 76.5069 44.8037 76.5947C42.2564 76.6825 41.378 78.3515 41.378 80.7231C41.378 87.5744 41.378 94.4258 41.378 101.277C41.378 103.824 42.4321 105.669 45.1551 105.581C47.7902 105.493 48.6686 103.561 48.6686 101.014C48.4929 97.9393 48.5807 94.6893 48.5807 91.4393Z" fill="black"/>
<path d="M122.976 54.5473C122.097 50.1554 119.111 46.9054 114.455 47.2568C109.536 47.6081 106.726 45.1487 103.651 42.0744C95.131 33.3784 86.5229 24.8581 77.9148 16.25C76.0702 14.4054 74.0499 13.0879 71.854 15.1081C69.3067 17.3919 70.7999 19.5 72.7323 21.4325C75.5431 24.2433 78.354 27.0541 81.0769 29.7771C86.6107 35.223 92.1445 40.7568 98.2931 46.8176C76.9485 46.8176 56.7458 46.8176 34.9621 46.8176C38.2999 43.6554 40.8472 41.4595 43.2188 39.0879C49.3675 33.0271 55.4283 26.8784 61.4891 20.8176C63.2458 19.0608 63.9485 17.0406 61.9283 15.1081C60.0837 13.4392 58.1512 13.9662 56.4823 15.5473C55.6918 16.25 55.0769 16.9527 54.2864 17.7433C45.9418 26.0879 37.4215 34.4325 29.2526 42.9527C26.5296 45.7635 23.9823 47.3446 19.8539 47.1689C14.8472 46.9933 11.7729 49.8919 10.8066 54.4595C9.57691 60.696 11.0702 66.4054 15.3742 67.8987C18.6242 69.0406 18.9756 71.1487 19.3269 73.7838C21.1715 85.2027 23.0161 96.5338 24.9485 107.953C26.6175 117.703 30.0431 120.514 40.0566 120.514C58.2391 120.514 76.3337 120.514 94.5161 120.514C105.144 120.514 108.658 117.264 109.976 106.899C111.469 95.3041 113.313 83.7973 114.894 72.2027C115.158 70.0946 115.861 69.0406 117.969 68.25C122.624 66.3176 124.293 61.1352 122.976 54.5473ZM111.908 61.9257C101.192 61.75 90.5634 61.9257 79.8472 61.8379C77.2121 61.8379 74.4891 62.0135 74.4891 65.3514C74.4891 68.6892 77.0364 69.0406 79.7594 69.0406C88.9823 68.9527 98.2053 69.0406 107.955 69.0406C106.023 82.4798 104.09 95.4798 102.246 108.568C101.807 111.818 100.313 113.135 97.0634 113.047C77.2999 112.959 57.5364 112.959 37.7729 113.047C34.5229 113.047 33.0296 111.73 32.5026 108.568C30.5702 96.6217 28.5499 84.6757 26.4418 72.7298C26.0026 70.0946 26.2661 68.8649 29.5161 68.9527C37.158 69.2162 44.7121 69.0406 52.3539 69.0406C55.2526 69.0406 59.381 70.0068 59.2931 65.3514C59.2053 60.696 55.0769 61.9257 52.1783 61.9257C42.0769 61.8379 31.9756 61.75 21.8742 61.9257C18.7999 62.0135 17.7458 61.0473 17.7458 57.8852C17.7458 54.723 19.2391 54.3717 21.7864 54.3717C51.7391 54.4595 81.7796 54.4595 111.732 54.3717C114.367 54.3717 115.773 54.8987 115.773 57.973C116.036 61.1352 114.894 62.0135 111.908 61.9257Z" fill="black"/>
</svg>