<svg width="30" height="30" viewBox="0 0 30 30" fill="none" xmlns="http://www.w3.org/2000/svg">
<g clip-path="url(#clip0_262_1419)">
<path d="M14.9993 15.0002C17.0701 15.0002 18.8377 14.2675 20.3023 12.8028C21.7671 11.338 22.4997 9.5705 22.4997 7.49991C22.4997 5.42967 21.7671 3.66208 20.3023 2.197C18.8372 0.732335 17.0696 0 14.9993 0C12.929 0 11.1611 0.732335 9.69644 2.197C8.2315 3.66208 7.49902 5.42961 7.49902 7.49991C7.49902 9.5705 8.2315 11.338 9.69644 12.8028C11.1615 14.2675 12.9289 15.0002 14.9993 15.0002Z" fill="black"/>
<path d="M28.681 22.92C28.6353 22.2626 28.544 21.5528 28.4075 20.791C28.2708 20.0292 28.098 19.3231 27.8897 18.6718C27.6813 18.0209 27.4013 17.3861 27.0497 16.7675C26.6983 16.149 26.2947 15.6217 25.8386 15.1854C25.3826 14.7491 24.8261 14.401 24.169 14.1407C23.5111 13.8804 22.7851 13.75 21.9908 13.75C21.8738 13.75 21.6003 13.8899 21.1705 14.1699C20.7412 14.4499 20.2561 14.7625 19.7157 15.1077C19.1754 15.4523 18.4719 15.7651 17.6063 16.0446C16.7404 16.3246 15.8714 16.4646 14.9987 16.4646C14.1263 16.4646 13.2572 16.3246 12.3914 16.0446C11.5257 15.7651 10.8223 15.4523 10.2819 15.1077C9.74164 14.7625 9.25668 14.45 8.82706 14.1699C8.39724 13.8899 8.12394 13.75 8.00675 13.75C7.21251 13.75 6.48653 13.8804 5.82904 14.1407C5.17141 14.401 4.61482 14.7494 4.159 15.1854C3.70332 15.6217 3.29963 16.149 2.9482 16.7675C2.59678 17.3861 2.31684 18.0212 2.10846 18.6718C1.90015 19.3231 1.72756 20.0292 1.59087 20.791C1.45405 21.5528 1.36293 22.2622 1.3173 22.92C1.27174 23.5778 1.24902 24.2517 1.24902 24.9418C1.24902 26.504 1.72441 27.7381 2.67484 28.6431C3.62547 29.5477 4.8886 30 6.4641 30H23.5348C25.1101 30 26.3731 29.5477 27.3239 28.6431C28.2749 27.7381 28.7499 26.5042 28.7499 24.9418C28.7498 24.2517 28.7271 23.5778 28.681 22.92Z" fill="black"/>
</g>
<defs>
<clipPath id="clip0_262_1419">
<rect width="30" height="30" fill="white"/>
</clipPath>
</defs>
</svg>
