<svg width="107" height="107" viewBox="0 0 107 107" fill="none" xmlns="http://www.w3.org/2000/svg">
<path d="M72.0291 38.4545C73.8613 38.4545 75.3467 36.9692 75.3467 35.1369C75.3467 33.3046 73.8613 31.8192 72.0291 31.8192C70.1968 31.8192 68.7114 33.3046 68.7114 35.1369C68.7114 36.9692 70.1968 38.4545 72.0291 38.4545Z" fill="black"/>
<path d="M54.684 26.1295C57.4324 26.1295 59.6604 23.9015 59.6604 21.153C59.6604 18.4046 57.4324 16.1766 54.684 16.1766C51.9356 16.1766 49.7075 18.4046 49.7075 21.153C49.7075 23.9015 51.9356 26.1295 54.684 26.1295Z" fill="black"/>
<path d="M23.6414 46.8647C25.4736 46.8647 26.959 45.3794 26.959 43.5471C26.959 41.7148 25.4736 40.2295 23.6414 40.2295C21.8091 40.2295 20.3237 41.7148 20.3237 43.5471C20.3237 45.3794 21.8091 46.8647 23.6414 46.8647Z" fill="black"/>
<path d="M53.4999 103.265C63.3424 103.265 72.9639 100.346 81.1476 94.8777C89.3314 89.4095 95.7098 81.6374 99.4764 72.5441C103.243 63.4508 104.228 53.4448 102.308 43.7914C100.388 34.138 95.6485 25.2708 88.6888 18.3111C81.7291 11.3514 72.8619 6.61183 63.2085 4.69165C53.5551 2.77148 43.5491 3.75698 34.4558 7.52354C25.3626 11.2901 17.5904 17.6686 12.1222 25.8523C6.65399 34.036 3.73535 43.6575 3.73535 53.5C3.75028 66.6938 8.99811 79.3429 18.3275 88.6724C27.657 98.0018 40.3061 103.25 53.4999 103.265ZM53.4999 7.05308C62.6862 7.05308 71.6663 9.77714 79.3044 14.8808C86.9426 19.9844 92.8958 27.2385 96.4113 35.7255C99.9267 44.2126 100.847 53.5515 99.0544 62.5613C97.2622 71.5712 92.8386 79.8472 86.3428 86.3429C79.8471 92.8386 71.5711 97.2623 62.5612 99.0545C53.5514 100.847 44.2125 99.9268 35.7254 96.4114C27.2384 92.8959 19.9844 86.9427 14.8807 79.3045C9.77705 71.6664 7.05299 62.6863 7.05299 53.5C7.06704 41.1858 11.965 29.38 20.6725 20.6726C29.3799 11.9651 41.1857 7.06713 53.4999 7.05308Z" fill="black"/>
<path d="M28.3636 81.534C34.6671 85.5467 42.0057 86.406 47.8995 87.0961C51.9072 87.5655 55.6959 88.0084 56.6647 89.3404C56.8877 89.6462 57.2085 89.8665 57.574 89.9649C57.9395 90.0632 58.3276 90.0335 58.6739 89.8809C59.0202 89.7283 59.3039 89.4618 59.4779 89.1257C59.652 88.7897 59.7059 88.4042 59.6306 88.0333C59.5709 87.7347 59.0335 85.1138 58.0066 81.5141C58.3597 78.6854 59.079 75.9147 60.1465 73.2715C60.7951 72.3458 63.6732 71.737 66.4699 71.1515C71.0134 70.1993 76.665 69.0166 81.3247 65.4252C88.3663 59.9976 89.4761 42.8952 89.5192 42.1703C89.5327 41.9475 89.501 41.7243 89.4262 41.5141C89.3514 41.3039 89.2349 41.1109 89.0837 40.9467C88.9326 40.7826 88.7499 40.6506 88.5465 40.5587C88.3431 40.4668 88.1233 40.4169 87.9002 40.4119C87.3429 40.4036 73.9661 40.2129 65.0467 49.2617C59.2076 55.187 57.2817 70.1247 57.0528 72.0672C56.877 72.5283 56.4341 73.726 55.9729 75.2007C55.462 73.794 54.8964 72.3591 54.2776 70.9425C56.0737 64.7374 55.5513 58.0909 52.8079 52.2426C53.0202 49.9203 53.7153 40.0719 50.6896 35.2281C45.7944 27.3968 36.296 25.4195 35.8946 25.3399C35.6758 25.2962 35.4505 25.2972 35.2321 25.3426C35.0137 25.3881 34.8067 25.4771 34.6235 25.6044C34.4403 25.7317 34.2846 25.8946 34.1658 26.0835C34.0471 26.2723 33.9676 26.4832 33.9322 26.7034C33.7232 28.0023 32.0113 39.5477 36.1235 44.4827C38.787 47.3164 42.064 49.5028 45.7032 50.8741C47.153 51.5376 49.3526 52.5329 49.5301 53.0803C49.5673 53.173 49.6134 53.2619 49.6678 53.3457L49.6512 53.3557C51.5501 57.3288 52.3218 61.747 51.8823 66.1286C50.5754 63.7005 48.8645 61.5127 46.8229 59.6592C34.478 49.2086 17.5298 50.9703 16.8132 51.0499C16.5915 51.0749 16.3771 51.1443 16.1828 51.254C15.9886 51.3638 15.8184 51.5115 15.6826 51.6886C15.5468 51.8656 15.4481 52.0682 15.3924 52.2842C15.3367 52.5003 15.3251 52.7253 15.3584 52.946C15.5127 53.86 18.8751 75.4876 28.3636 81.534ZM67.4105 51.5841C73.3822 45.5144 81.9434 44.1293 85.7985 43.8158C80.5384 48.3195 66.6391 60.5218 61.0041 68.227C61.9281 63.1809 63.8855 55.1588 67.4105 51.5841ZM49.6844 48.6894C47.5014 43.1257 40.5061 33.4996 37.2565 29.1751C41.5641 30.5205 45.3 33.264 47.8729 36.9715C49.5185 39.6124 49.7905 44.8294 49.6844 48.6894ZM44.6797 62.1872C50.192 66.8585 53.8546 78.6693 55.4537 84.8202C48.6658 76.6372 26.0329 59.4402 19.0709 54.2349C23.6658 54.1187 35.6955 54.5716 44.6847 62.1889L44.6797 62.1872Z" fill="black"/>
</svg>
