<svg width="36" height="36" viewBox="0 0 36 36" fill="none" xmlns="http://www.w3.org/2000/svg">
<path d="M24.0107 12.7285C24.6137 12.7285 25.1025 12.2396 25.1025 11.6367C25.1025 11.0337 24.6137 10.5449 24.0107 10.5449C23.4078 10.5449 22.9189 11.0337 22.9189 11.6367C22.9189 12.2396 23.4078 12.7285 24.0107 12.7285Z" fill="black"/>
<path d="M18.3037 8.6725C19.2081 8.6725 19.9413 7.9393 19.9413 7.03484C19.9413 6.13038 19.2081 5.39717 18.3037 5.39717C17.3992 5.39717 16.666 6.13038 16.666 7.03484C16.666 7.9393 17.3992 8.6725 18.3037 8.6725Z" fill="black"/>
<path d="M8.08689 15.4961C8.68987 15.4961 9.17867 15.0073 9.17867 14.4043C9.17867 13.8014 8.68987 13.3126 8.08689 13.3126C7.48392 13.3126 6.99512 13.8014 6.99512 14.4043C6.99512 15.0073 7.48392 15.4961 8.08689 15.4961Z" fill="black"/>
<path d="M17.9128 34.0563C21.1518 34.0563 24.3181 33.0959 27.0112 31.2964C29.7043 29.4969 31.8033 26.9392 33.0429 23.9468C34.2824 20.9543 34.6067 17.6615 33.9748 14.4847C33.3429 11.308 31.7832 8.38994 29.4928 6.09962C27.2025 3.8093 24.2845 2.24958 21.1077 1.61768C17.931 0.985785 14.6382 1.3101 11.6457 2.54961C8.65327 3.78912 6.09559 5.88816 4.2961 8.58129C2.49661 11.2744 1.53613 14.4407 1.53613 17.6797C1.54105 22.0215 3.26802 26.1841 6.33817 29.2543C9.40833 32.3245 13.5709 34.0514 17.9128 34.0563ZM17.9128 2.39479C20.9359 2.39479 23.891 3.29123 26.4046 4.97075C28.9182 6.65028 30.8773 9.03745 32.0342 11.8304C33.1911 14.6233 33.4938 17.6966 32.904 20.6616C32.3142 23.6266 30.8585 26.3501 28.7208 28.4877C26.5832 30.6253 23.8597 32.0811 20.8947 32.6709C17.9298 33.2606 14.8565 32.9579 12.0635 31.8011C9.27058 30.6442 6.8834 28.6851 5.20388 26.1715C3.52435 23.6579 2.62791 20.7027 2.62791 17.6797C2.63253 13.6273 4.24439 9.7422 7.10986 6.87673C9.97533 4.01126 13.8604 2.39941 17.9128 2.39479Z" fill="black"/>
<path d="M9.64038 26.9052C11.7148 28.2257 14.1298 28.5085 16.0693 28.7355C17.3882 28.89 18.635 29.0358 18.9538 29.4741C19.0272 29.5748 19.1328 29.6473 19.253 29.6796C19.3733 29.712 19.501 29.7022 19.615 29.652C19.729 29.6018 19.8223 29.5141 19.8796 29.4035C19.9369 29.2929 19.9546 29.166 19.9298 29.044C19.9102 28.9457 19.7333 28.0832 19.3954 26.8986C19.5116 25.9678 19.7483 25.0559 20.0996 24.1861C20.313 23.8815 21.2602 23.6812 22.1805 23.4885C23.6757 23.1751 25.5356 22.7859 27.069 21.6041C29.3863 19.8179 29.7515 14.1898 29.7657 13.9512C29.7701 13.8779 29.7597 13.8045 29.735 13.7353C29.7104 13.6661 29.6721 13.6026 29.6223 13.5486C29.5726 13.4946 29.5125 13.4511 29.4455 13.4209C29.3786 13.3907 29.3063 13.3742 29.2329 13.3726C29.0495 13.3699 24.6474 13.3071 21.7122 16.2849C19.7906 18.2348 19.1569 23.1506 19.0815 23.7898C19.0237 23.9416 18.8779 24.3357 18.7261 24.821C18.558 24.3581 18.3719 23.8859 18.1683 23.4197C18.7593 21.3777 18.5874 19.1904 17.6846 17.2659C17.7545 16.5016 17.9832 13.2607 16.9875 11.6667C15.3766 9.08956 12.2508 8.43886 12.1187 8.41266C12.0467 8.39829 11.9726 8.3986 11.9007 8.41355C11.8288 8.42851 11.7607 8.45781 11.7004 8.4997C11.6401 8.54159 11.5889 8.59521 11.5498 8.65736C11.5107 8.7195 11.4846 8.78889 11.4729 8.86138C11.4041 9.28881 10.8408 13.0882 12.194 14.7122C13.0706 15.6448 14.1489 16.3642 15.3466 16.8155C15.8237 17.0339 16.5475 17.3614 16.6059 17.5416C16.6182 17.5721 16.6333 17.6013 16.6512 17.6289L16.6458 17.6322C17.2707 18.9397 17.5246 20.3936 17.38 21.8355C16.9499 21.0365 16.3869 20.3165 15.715 19.7065C11.6525 16.2674 6.07518 16.8472 5.83935 16.8734C5.76639 16.8816 5.69583 16.9044 5.6319 16.9405C5.56797 16.9767 5.51198 17.0253 5.46729 17.0835C5.42259 17.1418 5.39011 17.2085 5.37178 17.2796C5.35345 17.3507 5.34965 17.4247 5.36061 17.4973C5.41138 17.7981 6.51789 24.9154 9.64038 26.9052ZM22.4901 17.0492C24.4553 15.0518 27.2726 14.5959 28.5412 14.4928C26.8102 15.9749 22.2362 19.9904 20.3818 22.5261C20.6859 20.8655 21.33 18.2256 22.4901 17.0492ZM16.6567 16.0966C15.9383 14.2657 13.6363 11.0979 12.5669 9.67475C13.9845 10.1175 15.2139 11.0203 16.0606 12.2404C16.6021 13.1095 16.6916 14.8263 16.6567 16.0966ZM15.0097 20.5385C16.8237 22.0757 18.029 25.9624 18.5553 27.9866C16.3215 25.2937 8.8734 19.6345 6.58231 17.9215C8.09442 17.8833 12.0532 18.0323 15.0114 20.539L15.0097 20.5385Z" fill="black"/>
</svg>
