<svg width="107" height="107" viewBox="0 0 107 107" fill="none" xmlns="http://www.w3.org/2000/svg">
<path d="M53.4385 2.07663C25.0379 2.07663 2.01514 25.0994 2.01514 53.5C2.01514 81.9006 25.0379 104.923 53.4385 104.923C81.8391 104.923 104.862 81.9006 104.862 53.5C104.862 25.0994 81.8391 2.07663 53.4385 2.07663ZM53.4385 98.2881C28.7022 98.2881 8.65041 78.2363 8.65041 53.5C8.65041 42.3262 12.751 32.1162 19.519 24.2716L82.6669 87.4195C74.8207 94.1858 64.6123 98.2881 53.4385 98.2881ZM87.358 82.7284L76.2091 71.5795C77.5312 71.4351 78.8284 71.2062 80.0841 70.8761C85.8983 69.3384 89.9325 64.0534 89.9325 58.0402V56.184C86.3644 61.5569 80.2649 65.1101 73.3443 65.1101H69.7397L66.4221 61.7924H73.3443C82.5043 61.7924 89.9325 54.3642 89.9325 45.2043C89.9325 36.0443 82.5043 28.6161 73.3443 28.6161H36.8503C35.7207 28.6161 34.6192 28.7255 33.5426 28.9113L24.2101 19.5788C32.0547 12.8142 42.2631 8.7119 53.4385 8.7119C78.1748 8.7119 98.2266 28.7637 98.2266 53.5C98.2266 64.6738 94.1244 74.8838 87.358 82.7284Z" fill="black"/>
<path d="M44.3148 71.7453H36.8502C28.3968 71.7453 21.0068 67.1902 16.9443 60.4222V63.71C16.9443 68.7263 19.7129 73.434 24.2498 75.5689C28.0783 77.3721 32.3448 78.3823 36.8502 78.3823H44.3148C49.7442 78.3823 54.9445 75.9173 58.3899 71.747H62.3014L55.9714 65.4169C55.0441 65.7388 54.2047 66.3011 53.6059 67.1007C51.4245 70.0086 47.951 71.7453 44.3148 71.7453Z" fill="black"/>
<path d="M36.8502 68.4294H44.3148C46.9258 68.4294 49.3842 67.2002 50.9501 65.1117C51.6352 64.1977 52.4978 63.4612 53.4616 62.9072L23.9412 33.3868C19.6648 37.0379 16.9443 42.4589 16.9443 48.5235C16.9443 59.5149 25.8572 68.4294 36.8502 68.4294ZM31.8737 45.2059C33.705 45.2059 35.1913 46.6922 35.1913 48.5235C35.1913 50.3549 33.705 51.8412 31.8737 51.8412C30.0424 51.8412 28.5561 50.3549 28.5561 48.5235C28.5561 46.6922 30.0424 45.2059 31.8737 45.2059Z" fill="black"/>
</svg>
