<svg width="35" height="35" viewBox="0 0 35 35" fill="none" xmlns="http://www.w3.org/2000/svg">
<g clip-path="url(#clip0_254_1305)">
<path d="M17.5 0.546875C8.13695 0.546875 0.546875 8.13695 0.546875 17.5C0.546875 26.863 8.13695 34.4531 17.5 34.4531C26.863 34.4531 34.4531 26.863 34.4531 17.5C34.4531 8.13695 26.863 0.546875 17.5 0.546875ZM17.5 32.2656C9.345 32.2656 2.73438 25.655 2.73438 17.5C2.73438 13.8162 4.08625 10.4502 6.3175 7.86406L27.1359 28.6825C24.5492 30.9132 21.1838 32.2656 17.5 32.2656ZM28.6825 27.1359L25.007 23.4604C25.4428 23.4128 25.8705 23.3373 26.2845 23.2285C28.2013 22.7216 29.5312 20.9792 29.5312 18.9968V18.3848C28.3549 20.1562 26.3441 21.3276 24.0625 21.3276H22.8741L21.7804 20.2338H24.0625C27.0823 20.2338 29.5312 17.7849 29.5312 14.7651C29.5312 11.7452 27.0823 9.29633 24.0625 9.29633H12.0312C11.6588 9.29633 11.2957 9.33242 10.9408 9.39367L7.86406 6.31695C10.4502 4.0868 13.8157 2.73438 17.5 2.73438C25.655 2.73438 32.2656 9.345 32.2656 17.5C32.2656 21.1838 30.9132 24.5498 28.6825 27.1359Z" fill="black"/>
<path d="M14.4922 23.5151H12.0313C9.24438 23.5151 6.80805 22.0134 5.46875 19.7821V20.866C5.46875 22.5198 6.38148 24.0718 7.87719 24.7756C9.13938 25.3701 10.5459 25.7031 12.0313 25.7031H14.4922C16.2821 25.7031 17.9966 24.8905 19.1324 23.5156H20.422L18.3351 21.4288C18.0294 21.5348 17.7527 21.7202 17.5552 21.9838C16.8361 22.9425 15.6909 23.5151 14.4922 23.5151Z" fill="black"/>
<path d="M12.0312 22.4219H14.4922C15.353 22.4219 16.1634 22.0166 16.6797 21.3281C16.9055 21.0268 17.1899 20.784 17.5077 20.6013L7.77547 10.8691C6.36563 12.0728 5.46875 13.86 5.46875 15.8594C5.46875 19.483 8.40711 22.4219 12.0312 22.4219ZM10.3906 14.7656C10.9944 14.7656 11.4844 15.2556 11.4844 15.8594C11.4844 16.4631 10.9944 16.9531 10.3906 16.9531C9.78688 16.9531 9.29688 16.4631 9.29688 15.8594C9.29688 15.2556 9.78688 14.7656 10.3906 14.7656Z" fill="black"/>
</g>
<defs>
<clipPath id="clip0_254_1305">
<rect width="35" height="35" fill="white"/>
</clipPath>
</defs>
</svg>
